<svg width="300" height="270" viewBox="0 0 300 270" fill="none" xmlns="http://www.w3.org/2000/svg">
<path d="M30.5774 111.962L90.2887 8.53848L209.711 8.53848L269.423 111.962L209.711 215.385L90.2887 215.385L30.5774 111.962Z" fill="#2E0044" stroke="#2E0044"/>
<path d="M117.578 118.779C117.578 118.876 117.564 118.977 117.538 119.083C117.52 119.189 117.472 119.277 117.392 119.347C116.996 119.647 116.564 119.925 116.097 120.18C115.638 120.427 115.14 120.643 114.603 120.828C114.065 121.013 113.483 121.154 112.857 121.251C112.24 121.357 111.575 121.41 110.861 121.41C109.256 121.41 107.793 121.176 106.471 120.709C105.148 120.233 104.011 119.563 103.059 118.699C102.116 117.835 101.384 116.8 100.864 115.592C100.344 114.376 100.084 113.027 100.084 111.546C100.084 110.709 100.19 109.884 100.402 109.073C100.622 108.262 100.939 107.491 101.354 106.759C101.768 106.028 102.279 105.358 102.887 104.75C103.496 104.133 104.188 103.599 104.963 103.15C105.748 102.7 106.607 102.352 107.542 102.105C108.485 101.849 109.503 101.722 110.596 101.722C111.019 101.722 111.451 101.744 111.892 101.788C112.333 101.823 112.769 101.88 113.201 101.96C113.633 102.03 114.047 102.118 114.444 102.224C114.849 102.33 115.233 102.449 115.594 102.581L116.493 105.027L116.388 105.08C116.044 104.772 115.647 104.485 115.198 104.221C114.748 103.956 114.268 103.727 113.756 103.533C113.245 103.339 112.707 103.189 112.143 103.084C111.588 102.969 111.024 102.912 110.451 102.912C109.34 102.912 108.322 103.088 107.396 103.441C106.471 103.784 105.673 104.287 105.003 104.948C104.342 105.609 103.826 106.42 103.456 107.381C103.086 108.342 102.901 109.435 102.901 110.66C102.901 112.009 103.077 113.26 103.43 114.415C103.782 115.57 104.307 116.57 105.003 117.417C105.699 118.263 106.568 118.928 107.608 119.413C108.657 119.889 109.878 120.127 111.27 120.127C111.888 120.127 112.438 120.079 112.923 119.982C113.408 119.885 113.818 119.766 114.153 119.625C114.488 119.475 114.739 119.316 114.907 119.149C115.083 118.973 115.171 118.814 115.171 118.673V118.157C115.171 117.54 115.162 117.007 115.145 116.557C115.127 116.108 115.101 115.72 115.065 115.394C115.03 115.059 114.99 114.772 114.946 114.534C114.902 114.296 114.849 114.076 114.788 113.873V113.82H117.961V113.873C117.908 114.058 117.855 114.279 117.802 114.534C117.758 114.781 117.719 115.076 117.683 115.42C117.648 115.764 117.622 116.169 117.604 116.637C117.586 117.095 117.578 117.628 117.578 118.237V118.779ZM123.514 114.098C123.691 114.124 123.867 114.146 124.043 114.164C124.228 114.173 124.405 114.177 124.572 114.177C125.674 114.177 126.507 113.882 127.071 113.291C127.644 112.701 127.931 111.815 127.931 110.634C127.931 109.664 127.702 108.897 127.243 108.333C126.794 107.769 126.128 107.487 125.247 107.487C124.965 107.487 124.713 107.5 124.493 107.526C124.281 107.544 124.101 107.566 123.951 107.592C123.783 107.628 123.638 107.663 123.514 107.698V114.098ZM125.538 114.957C125.361 114.984 125.185 115.001 125.009 115.01C124.841 115.01 124.669 115.01 124.493 115.01C124.352 115.01 124.198 115.006 124.03 114.997C123.863 114.988 123.691 114.975 123.514 114.957V115.605C123.514 116.39 123.523 117.077 123.541 117.668C123.559 118.25 123.581 118.752 123.607 119.175C123.642 119.598 123.682 119.955 123.726 120.246C123.77 120.528 123.823 120.762 123.885 120.947V121H120.83V120.947C120.892 120.762 120.945 120.524 120.989 120.233C121.042 119.942 121.082 119.585 121.108 119.162C121.143 118.73 121.17 118.219 121.187 117.628C121.205 117.038 121.214 116.346 121.214 115.552V112.22C121.214 111.427 121.205 110.739 121.187 110.158C121.17 109.567 121.143 109.06 121.108 108.637C121.082 108.205 121.042 107.844 120.989 107.553C120.945 107.262 120.892 107.024 120.83 106.839V106.786C120.971 106.795 121.121 106.803 121.28 106.812C121.412 106.821 121.558 106.83 121.716 106.839C121.884 106.839 122.051 106.839 122.219 106.839C122.501 106.839 122.919 106.812 123.475 106.759C124.03 106.706 124.682 106.68 125.432 106.68C126.19 106.68 126.877 106.773 127.494 106.958C128.12 107.143 128.654 107.407 129.094 107.751C129.544 108.095 129.888 108.514 130.126 109.007C130.373 109.501 130.496 110.052 130.496 110.66C130.496 111.136 130.43 111.572 130.298 111.969C130.165 112.357 129.98 112.71 129.742 113.027C129.504 113.335 129.222 113.609 128.896 113.847C128.57 114.085 128.208 114.292 127.812 114.468L130.575 118.369C130.813 118.686 131.051 118.99 131.289 119.281C131.536 119.572 131.77 119.832 131.99 120.061C132.21 120.29 132.418 120.484 132.612 120.643C132.805 120.793 132.969 120.894 133.101 120.947V121H129.636C129.636 120.921 129.579 120.784 129.465 120.59C129.359 120.387 129.231 120.18 129.081 119.969C128.94 119.748 128.795 119.537 128.645 119.334C128.504 119.131 128.398 118.981 128.327 118.884L125.538 114.957ZM133.458 113.847C133.458 112.806 133.652 111.841 134.04 110.951C134.436 110.061 134.974 109.289 135.653 108.637C136.331 107.976 137.134 107.46 138.059 107.09C138.985 106.72 139.976 106.535 141.034 106.535C142.074 106.535 143.053 106.711 143.97 107.064C144.895 107.407 145.697 107.901 146.376 108.544C147.064 109.188 147.606 109.968 148.003 110.885C148.399 111.802 148.598 112.829 148.598 113.966C148.598 114.909 148.43 115.821 148.095 116.703C147.76 117.575 147.271 118.351 146.627 119.03C145.984 119.7 145.191 120.238 144.247 120.643C143.304 121.04 142.224 121.238 141.008 121.238C139.976 121.238 139.002 121.066 138.086 120.722C137.169 120.379 136.367 119.889 135.679 119.255C134.992 118.611 134.449 117.835 134.053 116.927C133.656 116.011 133.458 114.984 133.458 113.847ZM141.338 120.299C142.008 120.299 142.625 120.167 143.19 119.903C143.754 119.638 144.239 119.259 144.644 118.765C145.058 118.272 145.376 117.672 145.596 116.967C145.825 116.253 145.94 115.451 145.94 114.561C145.94 113.547 145.83 112.608 145.609 111.744C145.398 110.88 145.072 110.136 144.631 109.51C144.199 108.875 143.657 108.381 143.004 108.029C142.352 107.667 141.59 107.487 140.717 107.487C140.047 107.487 139.43 107.614 138.866 107.87C138.302 108.126 137.812 108.496 137.398 108.981C136.993 109.466 136.675 110.061 136.446 110.766C136.217 111.471 136.102 112.273 136.102 113.172C136.102 114.177 136.212 115.116 136.433 115.989C136.662 116.853 136.993 117.606 137.425 118.25C137.865 118.884 138.412 119.387 139.064 119.757C139.716 120.119 140.475 120.299 141.338 120.299ZM160.881 108.055L164.57 117.43L167.678 109.655C167.757 109.488 167.836 109.303 167.916 109.1C167.995 108.888 168.065 108.677 168.127 108.465C168.198 108.245 168.251 108.038 168.286 107.844C168.33 107.641 168.352 107.46 168.352 107.302C168.352 107.187 168.343 107.09 168.325 107.011C168.308 106.922 168.29 106.865 168.273 106.839V106.786H170.745V106.839C170.569 107.015 170.362 107.306 170.124 107.711C169.886 108.108 169.604 108.694 169.277 109.47L164.346 121.185H163.618L160.048 112.445L156.412 121.185H155.658L151.11 110.144C150.942 109.739 150.762 109.351 150.568 108.981C150.383 108.602 150.202 108.267 150.026 107.976C149.858 107.676 149.708 107.429 149.576 107.235C149.453 107.033 149.369 106.9 149.325 106.839V106.786H152.948V106.839C152.93 106.883 152.917 106.953 152.908 107.05C152.899 107.147 152.895 107.231 152.895 107.302C152.895 107.584 152.939 107.901 153.027 108.254C153.115 108.597 153.261 109.029 153.463 109.549L156.637 117.483L160.366 108.055H160.881ZM175.876 107.764C175.073 107.764 174.342 107.8 173.681 107.87C173.028 107.941 172.464 108.016 171.988 108.095C171.442 108.192 170.948 108.298 170.507 108.412L170.772 106.706C170.904 106.724 171.12 106.737 171.42 106.746C171.719 106.755 172.032 106.764 172.358 106.773C172.693 106.773 173.006 106.777 173.297 106.786C173.597 106.786 173.804 106.786 173.919 106.786H180.173C180.279 106.786 180.473 106.786 180.755 106.786C181.046 106.777 181.354 106.773 181.68 106.773C182.006 106.764 182.319 106.755 182.619 106.746C182.919 106.737 183.135 106.724 183.267 106.706L183.531 108.412C183.108 108.298 182.623 108.192 182.077 108.095C181.61 108.016 181.046 107.941 180.384 107.87C179.732 107.8 178.996 107.764 178.176 107.764V115.552C178.176 116.346 178.185 117.038 178.203 117.628C178.22 118.219 178.242 118.73 178.269 119.162C178.304 119.585 178.344 119.942 178.388 120.233C178.432 120.524 178.485 120.762 178.546 120.947V121H175.492V120.947C175.554 120.762 175.607 120.524 175.651 120.233C175.695 119.942 175.734 119.585 175.77 119.162C175.805 118.73 175.831 118.219 175.849 117.628C175.867 117.038 175.876 116.346 175.876 115.552V107.764ZM195.537 114.204C195.264 114.204 194.925 114.204 194.519 114.204C194.114 114.195 193.673 114.186 193.197 114.177C192.721 114.168 192.227 114.164 191.716 114.164C191.205 114.155 190.711 114.151 190.235 114.151C189.786 114.151 189.362 114.155 188.966 114.164C188.578 114.173 188.243 114.186 187.961 114.204V115.552C187.961 116.346 187.97 117.038 187.987 117.628C188.005 118.219 188.027 118.73 188.053 119.162C188.089 119.585 188.128 119.942 188.172 120.233C188.216 120.524 188.269 120.762 188.331 120.947V121H185.277V120.947C185.338 120.762 185.391 120.524 185.435 120.233C185.488 119.942 185.528 119.585 185.554 119.162C185.59 118.73 185.616 118.219 185.634 117.628C185.651 117.038 185.66 116.346 185.66 115.552V112.22C185.66 111.427 185.651 110.739 185.634 110.158C185.616 109.567 185.59 109.06 185.554 108.637C185.528 108.205 185.488 107.844 185.435 107.553C185.391 107.262 185.338 107.024 185.277 106.839V106.786H188.331V106.839C188.269 107.024 188.216 107.262 188.172 107.553C188.128 107.844 188.089 108.205 188.053 108.637C188.027 109.06 188.005 109.567 187.987 110.158C187.97 110.739 187.961 111.427 187.961 112.22V113.119H189.905C190.389 113.119 190.901 113.119 191.438 113.119C191.976 113.111 192.496 113.106 192.999 113.106C193.501 113.097 193.973 113.089 194.413 113.08C194.854 113.071 195.229 113.058 195.537 113.04V112.22C195.537 111.427 195.529 110.739 195.511 110.158C195.493 109.567 195.467 109.06 195.432 108.637C195.405 108.205 195.37 107.844 195.326 107.553C195.282 107.262 195.229 107.024 195.167 106.839V106.786H198.222V106.839C198.16 107.024 198.103 107.262 198.05 107.553C198.006 107.844 197.966 108.205 197.931 108.637C197.904 109.06 197.882 109.567 197.865 110.158C197.847 110.739 197.838 111.427 197.838 112.22V115.552C197.838 116.346 197.847 117.038 197.865 117.628C197.882 118.219 197.904 118.73 197.931 119.162C197.966 119.585 198.006 119.942 198.05 120.233C198.103 120.524 198.16 120.762 198.222 120.947V121H195.167V120.947C195.229 120.762 195.282 120.524 195.326 120.233C195.37 119.942 195.405 119.585 195.432 119.162C195.467 118.73 195.493 118.219 195.511 117.628C195.529 117.038 195.537 116.346 195.537 115.552V114.204Z" fill="#F3D8FF"/>
</svg>
