<svg width="300" height="270" viewBox="0 0 300 270" fill="none" xmlns="http://www.w3.org/2000/svg">
<path d="M44.5004 113.923L104.212 10.5L223.634 10.5L283.346 113.923L223.634 217.346L104.212 217.346L44.5004 113.923Z" fill="#2E0044" stroke="#2E0044"/>
<path d="M96.0098 122.947C96.0627 122.762 96.1112 122.533 96.1553 122.26C96.1993 121.986 96.239 121.647 96.2743 121.241C96.3095 120.836 96.336 120.356 96.3536 119.8C96.3712 119.236 96.38 118.579 96.38 117.83V109.222C96.38 108.473 96.3712 107.821 96.3536 107.265C96.336 106.701 96.3095 106.216 96.2743 105.811C96.239 105.396 96.1993 105.053 96.1553 104.779C96.1112 104.506 96.0627 104.277 96.0098 104.092V104.039H99.17V104.092C99.1171 104.277 99.0642 104.506 99.0113 104.779C98.9672 105.053 98.9276 105.396 98.8923 105.811C98.8659 106.216 98.8394 106.701 98.813 107.265C98.7954 107.821 98.7865 108.473 98.7865 109.222V117.83C98.7865 118.579 98.7954 119.236 98.813 119.8C98.8394 120.356 98.8659 120.836 98.8923 121.241C98.9276 121.647 98.9672 121.986 99.0113 122.26C99.0642 122.533 99.1171 122.762 99.17 122.947V123H96.0098V122.947ZM115.632 123.185H115.116L104.604 112.845V117.552C104.604 118.346 104.609 119.038 104.618 119.628C104.626 120.219 104.64 120.73 104.657 121.162C104.684 121.585 104.715 121.942 104.75 122.233C104.794 122.524 104.847 122.762 104.909 122.947V123H102.925V122.947C102.987 122.762 103.04 122.524 103.084 122.233C103.128 121.942 103.163 121.585 103.19 121.162C103.216 120.73 103.234 120.219 103.243 119.628C103.251 119.038 103.256 118.346 103.256 117.552V114.22C103.256 113.427 103.251 112.739 103.243 112.158C103.234 111.567 103.216 111.06 103.19 110.637C103.163 110.205 103.128 109.844 103.084 109.553C103.04 109.262 102.987 109.024 102.925 108.839V108.786H103.745L114.27 119.179V114.22C114.27 113.427 114.266 112.739 114.257 112.158C114.248 111.567 114.23 111.06 114.204 110.637C114.186 110.205 114.16 109.844 114.125 109.553C114.089 109.262 114.041 109.024 113.979 108.839V108.786H115.949V108.839C115.888 109.024 115.835 109.262 115.791 109.553C115.755 109.844 115.725 110.205 115.698 110.637C115.672 111.06 115.654 111.567 115.645 112.158C115.636 112.739 115.632 113.427 115.632 114.22V123.185ZM132.134 123.185H131.618L121.106 112.845V117.552C121.106 118.346 121.11 119.038 121.119 119.628C121.128 120.219 121.141 120.73 121.159 121.162C121.185 121.585 121.216 121.942 121.252 122.233C121.296 122.524 121.349 122.762 121.41 122.947V123H119.427V122.947C119.489 122.762 119.541 122.524 119.586 122.233C119.63 121.942 119.665 121.585 119.691 121.162C119.718 120.73 119.735 120.219 119.744 119.628C119.753 119.038 119.757 118.346 119.757 117.552V114.22C119.757 113.427 119.753 112.739 119.744 112.158C119.735 111.567 119.718 111.06 119.691 110.637C119.665 110.205 119.63 109.844 119.586 109.553C119.541 109.262 119.489 109.024 119.427 108.839V108.786H120.247L130.772 119.179V114.22C130.772 113.427 130.767 112.739 130.759 112.158C130.75 111.567 130.732 111.06 130.706 110.637C130.688 110.205 130.662 109.844 130.626 109.553C130.591 109.262 130.543 109.024 130.481 108.839V108.786H132.451V108.839C132.389 109.024 132.336 109.262 132.292 109.553C132.257 109.844 132.226 110.205 132.2 110.637C132.173 111.06 132.156 111.567 132.147 112.158C132.138 112.739 132.134 113.427 132.134 114.22V123.185ZM135.175 115.847C135.175 114.806 135.369 113.841 135.757 112.951C136.153 112.061 136.691 111.289 137.37 110.637C138.049 109.976 138.851 109.46 139.776 109.09C140.702 108.72 141.693 108.535 142.751 108.535C143.791 108.535 144.77 108.711 145.687 109.064C146.612 109.407 147.414 109.901 148.093 110.544C148.781 111.188 149.323 111.968 149.72 112.885C150.116 113.802 150.315 114.829 150.315 115.966C150.315 116.909 150.147 117.821 149.812 118.703C149.477 119.575 148.988 120.351 148.344 121.03C147.701 121.7 146.908 122.238 145.964 122.643C145.021 123.04 143.941 123.238 142.725 123.238C141.693 123.238 140.719 123.066 139.803 122.722C138.886 122.379 138.084 121.889 137.396 121.255C136.709 120.611 136.167 119.835 135.77 118.927C135.373 118.011 135.175 116.984 135.175 115.847ZM143.055 122.299C143.725 122.299 144.342 122.167 144.907 121.903C145.471 121.638 145.956 121.259 146.361 120.765C146.775 120.272 147.093 119.672 147.313 118.967C147.542 118.253 147.657 117.451 147.657 116.561C147.657 115.547 147.547 114.608 147.326 113.744C147.115 112.88 146.789 112.136 146.348 111.51C145.916 110.875 145.374 110.381 144.721 110.029C144.069 109.667 143.307 109.487 142.434 109.487C141.764 109.487 141.147 109.614 140.583 109.87C140.019 110.126 139.529 110.496 139.115 110.981C138.71 111.466 138.392 112.061 138.163 112.766C137.934 113.471 137.819 114.273 137.819 115.172C137.819 116.177 137.929 117.116 138.15 117.989C138.379 118.853 138.71 119.606 139.142 120.25C139.582 120.884 140.129 121.387 140.781 121.757C141.433 122.119 142.192 122.299 143.055 122.299ZM154.48 108.786V108.839C154.462 108.883 154.449 108.953 154.44 109.05C154.431 109.147 154.427 109.231 154.427 109.302C154.427 109.584 154.466 109.901 154.546 110.254C154.634 110.597 154.793 111.029 155.022 111.549L158.539 119.509L162.083 111.655C162.162 111.488 162.241 111.311 162.321 111.126C162.4 110.932 162.475 110.734 162.545 110.531C162.616 110.328 162.673 110.126 162.717 109.923C162.761 109.711 162.783 109.504 162.783 109.302C162.783 109.187 162.775 109.09 162.757 109.011C162.739 108.922 162.722 108.865 162.704 108.839V108.786H165.203V108.839C165.036 109.015 164.82 109.328 164.555 109.778C164.291 110.218 164.017 110.782 163.735 111.47L158.46 123.185H157.613L152.747 112.144C152.571 111.739 152.382 111.351 152.179 110.981C151.985 110.602 151.8 110.267 151.624 109.976C151.456 109.676 151.306 109.429 151.174 109.235C151.042 109.033 150.949 108.9 150.896 108.839V108.786H154.48ZM174.657 118.531C174.419 118.531 174.119 118.531 173.758 118.531C173.405 118.531 173.018 118.531 172.594 118.531C172.171 118.531 171.735 118.531 171.285 118.531C170.836 118.531 170.408 118.535 170.003 118.544C169.597 118.544 169.227 118.548 168.892 118.557C168.557 118.557 168.297 118.557 168.112 118.557L167.623 119.589C167.411 120.012 167.231 120.382 167.081 120.699C166.931 121.008 166.807 121.281 166.71 121.519C166.613 121.757 166.543 121.964 166.499 122.141C166.455 122.308 166.433 122.467 166.433 122.617C166.433 122.714 166.437 122.788 166.446 122.841C166.455 122.885 166.468 122.921 166.486 122.947V123H164.158V122.947C164.22 122.885 164.317 122.753 164.449 122.55C164.582 122.339 164.731 122.083 164.899 121.784C165.075 121.484 165.26 121.144 165.454 120.765C165.657 120.386 165.855 119.994 166.049 119.589L171.444 108.455H172.436L177.725 119.589C177.928 120.012 178.13 120.417 178.333 120.805C178.545 121.193 178.738 121.541 178.915 121.85C179.091 122.149 179.245 122.401 179.378 122.603C179.51 122.797 179.598 122.912 179.642 122.947V123H176.257C176.275 122.929 176.284 122.868 176.284 122.815C176.284 122.753 176.284 122.687 176.284 122.617C176.284 122.423 176.239 122.189 176.151 121.916C176.072 121.642 175.971 121.365 175.847 121.083C175.733 120.792 175.609 120.514 175.477 120.25C175.354 119.985 175.252 119.765 175.173 119.589L174.657 118.531ZM168.628 117.499H169.434C169.804 117.499 170.197 117.499 170.611 117.499C171.034 117.491 171.457 117.486 171.88 117.486C172.304 117.486 172.713 117.486 173.11 117.486C173.507 117.477 173.864 117.473 174.181 117.473L171.444 111.629L168.628 117.499ZM184.151 109.764C183.349 109.764 182.617 109.8 181.956 109.87C181.304 109.941 180.739 110.016 180.263 110.095C179.717 110.192 179.223 110.298 178.783 110.412L179.047 108.706C179.179 108.724 179.395 108.737 179.695 108.746C179.995 108.755 180.308 108.764 180.634 108.773C180.969 108.773 181.282 108.777 181.573 108.786C181.872 108.786 182.079 108.786 182.194 108.786H188.448C188.554 108.786 188.748 108.786 189.03 108.786C189.321 108.777 189.629 108.773 189.956 108.773C190.282 108.764 190.595 108.755 190.894 108.746C191.194 108.737 191.41 108.724 191.542 108.706L191.807 110.412C191.384 110.298 190.899 110.192 190.352 110.095C189.885 110.016 189.321 109.941 188.66 109.87C188.007 109.8 187.271 109.764 186.452 109.764V117.552C186.452 118.346 186.46 119.038 186.478 119.628C186.496 120.219 186.518 120.73 186.544 121.162C186.579 121.585 186.619 121.942 186.663 122.233C186.707 122.524 186.76 122.762 186.822 122.947V123H183.767V122.947C183.829 122.762 183.882 122.524 183.926 122.233C183.97 121.942 184.01 121.585 184.045 121.162C184.08 120.73 184.107 120.219 184.124 119.628C184.142 119.038 184.151 118.346 184.151 117.552V109.764ZM194.041 114.22C194.041 113.427 194.032 112.739 194.015 112.158C193.997 111.567 193.971 111.06 193.936 110.637C193.909 110.205 193.869 109.844 193.817 109.553C193.772 109.262 193.72 109.024 193.658 108.839V108.786H196.725V108.839C196.664 109.024 196.606 109.262 196.554 109.553C196.51 109.844 196.47 110.205 196.435 110.637C196.408 111.06 196.386 111.567 196.368 112.158C196.351 112.739 196.342 113.427 196.342 114.22V117.552C196.342 118.346 196.351 119.038 196.368 119.628C196.386 120.219 196.408 120.73 196.435 121.162C196.47 121.585 196.51 121.942 196.554 122.233C196.606 122.524 196.664 122.762 196.725 122.947V123H193.658V122.947C193.72 122.762 193.772 122.524 193.817 122.233C193.869 121.942 193.909 121.585 193.936 121.162C193.971 120.73 193.997 120.219 194.015 119.628C194.032 119.038 194.041 118.346 194.041 117.552V114.22ZM199.648 115.847C199.648 114.806 199.842 113.841 200.229 112.951C200.626 112.061 201.164 111.289 201.843 110.637C202.521 109.976 203.323 109.46 204.249 109.09C205.175 108.72 206.166 108.535 207.224 108.535C208.264 108.535 209.243 108.711 210.16 109.064C211.085 109.407 211.887 109.901 212.566 110.544C213.254 111.188 213.796 111.968 214.192 112.885C214.589 113.802 214.787 114.829 214.787 115.966C214.787 116.909 214.62 117.821 214.285 118.703C213.95 119.575 213.461 120.351 212.817 121.03C212.174 121.7 211.38 122.238 210.437 122.643C209.494 123.04 208.414 123.238 207.198 123.238C206.166 123.238 205.192 123.066 204.276 122.722C203.359 122.379 202.557 121.889 201.869 121.255C201.181 120.611 200.639 119.835 200.243 118.927C199.846 118.011 199.648 116.984 199.648 115.847ZM207.528 122.299C208.198 122.299 208.815 122.167 209.379 121.903C209.944 121.638 210.428 121.259 210.834 120.765C211.248 120.272 211.566 119.672 211.786 118.967C212.015 118.253 212.13 117.451 212.13 116.561C212.13 115.547 212.019 114.608 211.799 113.744C211.588 112.88 211.261 112.136 210.821 111.51C210.389 110.875 209.847 110.381 209.194 110.029C208.542 109.667 207.779 109.487 206.907 109.487C206.237 109.487 205.62 109.614 205.056 109.87C204.491 110.126 204.002 110.496 203.588 110.981C203.182 111.466 202.865 112.061 202.636 112.766C202.407 113.471 202.292 114.273 202.292 115.172C202.292 116.177 202.402 117.116 202.623 117.989C202.852 118.853 203.182 119.606 203.614 120.25C204.055 120.884 204.602 121.387 205.254 121.757C205.906 122.119 206.664 122.299 207.528 122.299ZM230.192 123.185H229.676L219.164 112.845V117.552C219.164 118.346 219.168 119.038 219.177 119.628C219.186 120.219 219.199 120.73 219.217 121.162C219.243 121.585 219.274 121.942 219.309 122.233C219.354 122.524 219.406 122.762 219.468 122.947V123H217.485V122.947C217.546 122.762 217.599 122.524 217.643 122.233C217.688 121.942 217.723 121.585 217.749 121.162C217.776 120.73 217.793 120.219 217.802 119.628C217.811 119.038 217.815 118.346 217.815 117.552V114.22C217.815 113.427 217.811 112.739 217.802 112.158C217.793 111.567 217.776 111.06 217.749 110.637C217.723 110.205 217.688 109.844 217.643 109.553C217.599 109.262 217.546 109.024 217.485 108.839V108.786H218.305L228.83 119.179V114.22C228.83 113.427 228.825 112.739 228.816 112.158C228.808 111.567 228.79 111.06 228.764 110.637C228.746 110.205 228.719 109.844 228.684 109.553C228.649 109.262 228.6 109.024 228.539 108.839V108.786H230.509V108.839C230.447 109.024 230.394 109.262 230.35 109.553C230.315 109.844 230.284 110.205 230.258 110.637C230.231 111.06 230.214 111.567 230.205 112.158C230.196 112.739 230.192 113.427 230.192 114.22V123.185Z" fill="#F3D8FF"/>
</svg>
