<svg width="300" height="270" viewBox="0 0 300 270" fill="none" xmlns="http://www.w3.org/2000/svg">
<path d="M31.5004 113.923L91.2117 10.5001L210.634 10.5001L270.346 113.923L210.634 217.346L91.2117 217.346L31.5004 113.923Z" fill="#2E0044" stroke="#2E0044"/>
<path d="M97.0098 122.947C97.0627 122.762 97.1112 122.533 97.1553 122.26C97.1993 121.986 97.239 121.647 97.2743 121.241C97.3095 120.836 97.336 120.356 97.3536 119.8C97.3712 119.236 97.38 118.579 97.38 117.83V109.222C97.38 108.473 97.3712 107.821 97.3536 107.265C97.336 106.701 97.3095 106.216 97.2743 105.811C97.239 105.396 97.1993 105.053 97.1553 104.779C97.1112 104.506 97.0627 104.277 97.0098 104.092V104.039H100.17V104.092C100.117 104.277 100.064 104.506 100.011 104.779C99.9672 105.053 99.9276 105.396 99.8923 105.811C99.8659 106.216 99.8394 106.701 99.813 107.265C99.7954 107.821 99.7865 108.473 99.7865 109.222V117.83C99.7865 118.579 99.7954 119.236 99.813 119.8C99.8394 120.356 99.8659 120.836 99.8923 121.241C99.9276 121.647 99.9672 121.986 100.011 122.26C100.064 122.533 100.117 122.762 100.17 122.947V123H97.0098V122.947ZM116.632 123.185H116.116L105.604 112.845V117.552C105.604 118.346 105.609 119.038 105.618 119.628C105.626 120.219 105.64 120.73 105.657 121.162C105.684 121.585 105.715 121.942 105.75 122.233C105.794 122.524 105.847 122.762 105.909 122.947V123H103.925V122.947C103.987 122.762 104.04 122.524 104.084 122.233C104.128 121.942 104.163 121.585 104.19 121.162C104.216 120.73 104.234 120.219 104.243 119.628C104.251 119.038 104.256 118.346 104.256 117.552V114.22C104.256 113.427 104.251 112.739 104.243 112.158C104.234 111.567 104.216 111.06 104.19 110.637C104.163 110.205 104.128 109.844 104.084 109.553C104.04 109.262 103.987 109.024 103.925 108.839V108.786H104.745L115.27 119.179V114.22C115.27 113.427 115.266 112.739 115.257 112.158C115.248 111.567 115.23 111.06 115.204 110.637C115.186 110.205 115.16 109.844 115.125 109.553C115.089 109.262 115.041 109.024 114.979 108.839V108.786H116.949V108.839C116.888 109.024 116.835 109.262 116.791 109.553C116.755 109.844 116.725 110.205 116.698 110.637C116.672 111.06 116.654 111.567 116.645 112.158C116.636 112.739 116.632 113.427 116.632 114.22V123.185ZM124.063 109.764C123.261 109.764 122.529 109.8 121.868 109.87C121.216 109.941 120.652 110.016 120.176 110.095C119.629 110.192 119.135 110.298 118.695 110.412L118.959 108.706C119.091 108.724 119.307 108.737 119.607 108.746C119.907 108.755 120.22 108.764 120.546 108.773C120.881 108.773 121.194 108.777 121.485 108.786C121.784 108.786 121.991 108.786 122.106 108.786H128.36C128.466 108.786 128.66 108.786 128.942 108.786C129.233 108.777 129.542 108.773 129.868 108.773C130.194 108.764 130.507 108.755 130.806 108.746C131.106 108.737 131.322 108.724 131.454 108.706L131.719 110.412C131.296 110.298 130.811 110.192 130.264 110.095C129.797 110.016 129.233 109.941 128.572 109.87C127.92 109.8 127.184 109.764 126.364 109.764V117.552C126.364 118.346 126.373 119.038 126.39 119.628C126.408 120.219 126.43 120.73 126.456 121.162C126.492 121.585 126.531 121.942 126.575 122.233C126.619 122.524 126.672 122.762 126.734 122.947V123H123.68V122.947C123.741 122.762 123.794 122.524 123.838 122.233C123.882 121.942 123.922 121.585 123.957 121.162C123.992 120.73 124.019 120.219 124.037 119.628C124.054 119.038 124.063 118.346 124.063 117.552V109.764ZM133.464 108.786C134.328 108.786 135.214 108.786 136.122 108.786C137.03 108.777 137.872 108.768 138.647 108.759C139.423 108.742 140.089 108.724 140.644 108.706C141.208 108.689 141.578 108.662 141.755 108.627L141.239 110.055C141.001 109.993 140.732 109.936 140.432 109.883C140.168 109.839 139.846 109.8 139.467 109.764C139.097 109.72 138.665 109.698 138.171 109.698C137.995 109.698 137.792 109.707 137.563 109.725C137.334 109.733 137.114 109.747 136.902 109.764C136.655 109.782 136.404 109.8 136.148 109.817V115.04C136.862 115.031 137.506 115.014 138.079 114.987C138.652 114.961 139.141 114.925 139.547 114.881C140.023 114.846 140.441 114.798 140.803 114.736L140.485 116.309C140.001 116.248 139.511 116.195 139.018 116.151C138.595 116.107 138.127 116.071 137.616 116.045C137.105 116.01 136.616 115.992 136.148 115.992V121.995C136.968 121.995 137.722 121.964 138.409 121.903C139.097 121.832 139.696 121.757 140.208 121.678C140.807 121.581 141.349 121.471 141.834 121.347L141.53 123.079C141.398 123.071 141.182 123.057 140.882 123.04C140.591 123.031 140.283 123.022 139.956 123.013C139.639 123.013 139.339 123.009 139.057 123C138.775 123 138.581 123 138.476 123H133.464V122.947C133.526 122.762 133.579 122.524 133.623 122.233C133.676 121.942 133.715 121.585 133.742 121.162C133.777 120.73 133.804 120.219 133.821 119.628C133.839 119.038 133.848 118.346 133.848 117.552V114.22C133.848 113.427 133.839 112.739 133.821 112.158C133.804 111.567 133.777 111.06 133.742 110.637C133.715 110.205 133.676 109.844 133.623 109.553C133.579 109.262 133.526 109.024 133.464 108.839V108.786ZM157.78 121.4C157.78 121.515 157.767 121.612 157.741 121.691C157.723 121.77 157.675 121.836 157.595 121.889C156.969 122.33 156.238 122.683 155.4 122.947C154.572 123.203 153.598 123.331 152.478 123.331C151.218 123.331 150.067 123.15 149.027 122.788C147.996 122.427 147.11 121.925 146.369 121.281C145.629 120.629 145.052 119.849 144.637 118.941C144.232 118.033 144.029 117.028 144.029 115.926C144.029 114.983 144.214 114.066 144.584 113.176C144.963 112.285 145.505 111.496 146.211 110.809C146.916 110.121 147.771 109.57 148.776 109.156C149.79 108.742 150.931 108.535 152.2 108.535C152.862 108.535 153.487 108.574 154.078 108.654C154.669 108.724 155.237 108.839 155.784 108.997L156.775 111.377L156.643 111.47C156.114 110.862 155.475 110.381 154.726 110.029C153.977 109.667 153.117 109.487 152.148 109.487C151.354 109.487 150.623 109.614 149.953 109.87C149.292 110.126 148.714 110.5 148.22 110.994C147.736 111.479 147.357 112.078 147.083 112.792C146.81 113.506 146.673 114.317 146.673 115.225C146.673 116.248 146.801 117.195 147.057 118.068C147.313 118.941 147.696 119.699 148.207 120.342C148.719 120.977 149.349 121.475 150.098 121.836C150.856 122.198 151.738 122.379 152.743 122.379C153.606 122.379 154.276 122.268 154.752 122.048C155.237 121.828 155.48 121.576 155.48 121.294V120.594C155.48 120.135 155.475 119.738 155.466 119.403C155.458 119.069 155.444 118.782 155.427 118.544C155.409 118.297 155.383 118.086 155.347 117.909C155.321 117.733 155.286 117.57 155.242 117.42V117.367H158.058V117.42C158.014 117.552 157.974 117.711 157.939 117.896C157.904 118.081 157.873 118.302 157.846 118.557C157.829 118.813 157.811 119.113 157.794 119.456C157.785 119.8 157.78 120.197 157.78 120.646V121.4ZM163.492 116.098C163.669 116.124 163.845 116.146 164.021 116.164C164.206 116.173 164.383 116.177 164.55 116.177C165.652 116.177 166.485 115.882 167.049 115.291C167.622 114.701 167.909 113.815 167.909 112.634C167.909 111.664 167.68 110.897 167.221 110.333C166.772 109.769 166.106 109.487 165.225 109.487C164.943 109.487 164.691 109.5 164.471 109.526C164.259 109.544 164.079 109.566 163.929 109.592C163.761 109.628 163.616 109.663 163.492 109.698V116.098ZM165.516 116.957C165.339 116.984 165.163 117.001 164.987 117.01C164.819 117.01 164.647 117.01 164.471 117.01C164.33 117.01 164.176 117.006 164.008 116.997C163.841 116.988 163.669 116.975 163.492 116.957V117.605C163.492 118.39 163.501 119.077 163.519 119.668C163.537 120.25 163.559 120.752 163.585 121.175C163.62 121.598 163.66 121.955 163.704 122.246C163.748 122.528 163.801 122.762 163.863 122.947V123H160.808V122.947C160.87 122.762 160.923 122.524 160.967 122.233C161.02 121.942 161.06 121.585 161.086 121.162C161.121 120.73 161.148 120.219 161.165 119.628C161.183 119.038 161.192 118.346 161.192 117.552V114.22C161.192 113.427 161.183 112.739 161.165 112.158C161.148 111.567 161.121 111.06 161.086 110.637C161.06 110.205 161.02 109.844 160.967 109.553C160.923 109.262 160.87 109.024 160.808 108.839V108.786C160.949 108.795 161.099 108.803 161.258 108.812C161.39 108.821 161.536 108.83 161.694 108.839C161.862 108.839 162.029 108.839 162.197 108.839C162.479 108.839 162.897 108.812 163.453 108.759C164.008 108.706 164.66 108.68 165.41 108.68C166.168 108.68 166.855 108.773 167.472 108.958C168.098 109.143 168.632 109.407 169.072 109.751C169.522 110.095 169.866 110.514 170.104 111.007C170.351 111.501 170.474 112.052 170.474 112.66C170.474 113.136 170.408 113.572 170.276 113.969C170.143 114.357 169.958 114.71 169.72 115.027C169.482 115.335 169.2 115.609 168.874 115.847C168.548 116.085 168.186 116.292 167.79 116.468L170.553 120.369C170.791 120.686 171.029 120.99 171.267 121.281C171.514 121.572 171.748 121.832 171.968 122.061C172.188 122.29 172.396 122.484 172.59 122.643C172.783 122.793 172.947 122.894 173.079 122.947V123H169.614C169.614 122.921 169.557 122.784 169.443 122.59C169.337 122.387 169.209 122.18 169.059 121.969C168.918 121.748 168.773 121.537 168.623 121.334C168.482 121.131 168.376 120.981 168.305 120.884L165.516 116.957ZM174.811 114.22C174.811 113.427 174.802 112.739 174.784 112.158C174.767 111.567 174.74 111.06 174.705 110.637C174.679 110.205 174.639 109.844 174.586 109.553C174.542 109.262 174.489 109.024 174.427 108.839V108.786H177.495V108.839C177.433 109.024 177.376 109.262 177.323 109.553C177.279 109.844 177.239 110.205 177.204 110.637C177.178 111.06 177.156 111.567 177.138 112.158C177.12 112.739 177.112 113.427 177.112 114.22V117.552C177.112 118.346 177.12 119.038 177.138 119.628C177.156 120.219 177.178 120.73 177.204 121.162C177.239 121.585 177.279 121.942 177.323 122.233C177.376 122.524 177.433 122.762 177.495 122.947V123H174.427V122.947C174.489 122.762 174.542 122.524 174.586 122.233C174.639 121.942 174.679 121.585 174.705 121.162C174.74 120.73 174.767 120.219 174.784 119.628C174.802 119.038 174.811 118.346 174.811 117.552V114.22ZM184.807 109.764C184.005 109.764 183.273 109.8 182.612 109.87C181.96 109.941 181.396 110.016 180.92 110.095C180.373 110.192 179.88 110.298 179.439 110.412L179.703 108.706C179.835 108.724 180.051 108.737 180.351 108.746C180.651 108.755 180.964 108.764 181.29 108.773C181.625 108.773 181.938 108.777 182.229 108.786C182.528 108.786 182.736 108.786 182.85 108.786H189.104C189.21 108.786 189.404 108.786 189.686 108.786C189.977 108.777 190.286 108.773 190.612 108.773C190.938 108.764 191.251 108.755 191.551 108.746C191.85 108.737 192.066 108.724 192.198 108.706L192.463 110.412C192.04 110.298 191.555 110.192 191.008 110.095C190.541 110.016 189.977 109.941 189.316 109.87C188.664 109.8 187.928 109.764 187.108 109.764V117.552C187.108 118.346 187.117 119.038 187.134 119.628C187.152 120.219 187.174 120.73 187.2 121.162C187.236 121.585 187.275 121.942 187.319 122.233C187.363 122.524 187.416 122.762 187.478 122.947V123H184.424V122.947C184.485 122.762 184.538 122.524 184.582 122.233C184.626 121.942 184.666 121.585 184.701 121.162C184.737 120.73 184.763 120.219 184.781 119.628C184.798 119.038 184.807 118.346 184.807 117.552V109.764ZM200.436 117.552C200.436 118.346 200.445 119.038 200.463 119.628C200.48 120.219 200.502 120.73 200.529 121.162C200.564 121.585 200.604 121.942 200.648 122.233C200.701 122.524 200.758 122.762 200.82 122.947V123H197.752V122.947C197.814 122.762 197.867 122.524 197.911 122.233C197.963 121.942 198.003 121.585 198.03 121.162C198.065 120.73 198.091 120.219 198.109 119.628C198.127 119.038 198.135 118.346 198.135 117.552V116.64L193.375 110.359C193.058 109.936 192.754 109.597 192.463 109.341C192.172 109.077 191.952 108.909 191.802 108.839V108.786H195.557C195.557 108.945 195.614 109.191 195.729 109.526C195.843 109.852 196.077 110.254 196.43 110.73L199.788 115.172L203.226 110.544C203.473 110.209 203.658 109.879 203.781 109.553C203.914 109.227 203.98 108.971 203.98 108.786H206.399V108.839C206.179 108.989 205.95 109.178 205.712 109.407C205.483 109.636 205.214 109.963 204.905 110.386L200.436 116.442V117.552Z" fill="#F3D8FF"/>
</svg>
