<svg width="300" height="270" viewBox="0 0 300 270" fill="none" xmlns="http://www.w3.org/2000/svg">
<path d="M30.5774 111.962L90.2887 8.53848L209.711 8.53848L269.423 111.962L209.711 215.385L90.2887 215.385L30.5774 111.962Z" fill="#2E0044" stroke="#2E0044"/>
<path d="M82.8908 119.947C82.9437 119.762 82.9922 119.533 83.0363 119.26C83.0892 118.986 83.1332 118.647 83.1685 118.241C83.2037 117.836 83.2302 117.356 83.2478 116.8C83.2655 116.236 83.2743 115.579 83.2743 114.83V106.222C83.2743 105.473 83.2655 104.821 83.2478 104.265C83.2302 103.701 83.2037 103.216 83.1685 102.811C83.1332 102.396 83.0892 102.053 83.0363 101.779C82.9922 101.506 82.9437 101.277 82.8908 101.092V101.039H86.0642V101.092C86.0113 101.277 85.9584 101.506 85.9055 101.779C85.8615 102.053 85.8218 102.396 85.7865 102.811C85.7601 103.216 85.7336 103.701 85.7072 104.265C85.6896 104.821 85.6808 105.473 85.6808 106.222V109.171L93.4027 102.864C94.2666 102.158 94.6985 101.55 94.6985 101.039H98.414V101.092C97.8939 101.215 97.365 101.453 96.8273 101.806C96.2984 102.15 95.7343 102.573 95.1348 103.075L88.312 108.787L96.5232 117.805C96.867 118.158 97.1579 118.453 97.3959 118.691C97.6427 118.92 97.8587 119.114 98.0438 119.273C98.2289 119.423 98.3964 119.55 98.5462 119.656C98.7049 119.753 98.868 119.85 99.0355 119.947V120H95.1613C95.126 119.921 95.0643 119.819 94.9762 119.696C94.8968 119.572 94.7999 119.445 94.6853 119.312C94.5795 119.18 94.4605 119.044 94.3283 118.903C94.2049 118.761 94.0859 118.629 93.9713 118.506L85.6808 109.409V114.83C85.6808 115.579 85.6896 116.236 85.7072 116.8C85.7336 117.356 85.7601 117.836 85.7865 118.241C85.8218 118.647 85.8615 118.986 85.9055 119.26C85.9584 119.533 86.0113 119.762 86.0642 119.947V120H82.8908V119.947ZM112.946 120.185H112.43L101.918 109.845V114.552C101.918 115.346 101.922 116.038 101.931 116.628C101.94 117.219 101.953 117.73 101.971 118.162C101.997 118.585 102.028 118.942 102.063 119.233C102.107 119.524 102.16 119.762 102.222 119.947V120H100.239V119.947C100.3 119.762 100.353 119.524 100.397 119.233C100.441 118.942 100.477 118.585 100.503 118.162C100.53 117.73 100.547 117.219 100.556 116.628C100.565 116.038 100.569 115.346 100.569 114.552V111.22C100.569 110.427 100.565 109.739 100.556 109.158C100.547 108.567 100.53 108.06 100.503 107.637C100.477 107.205 100.441 106.844 100.397 106.553C100.353 106.262 100.3 106.024 100.239 105.839V105.786H101.059L111.584 116.179V111.22C111.584 110.427 111.579 109.739 111.57 109.158C111.562 108.567 111.544 108.06 111.517 107.637C111.5 107.205 111.473 106.844 111.438 106.553C111.403 106.262 111.354 106.024 111.293 105.839V105.786H113.263V105.839C113.201 106.024 113.148 106.262 113.104 106.553C113.069 106.844 113.038 107.205 113.012 107.637C112.985 108.06 112.968 108.567 112.959 109.158C112.95 109.739 112.946 110.427 112.946 111.22V120.185ZM115.987 112.847C115.987 111.806 116.181 110.841 116.568 109.951C116.965 109.061 117.503 108.289 118.182 107.637C118.86 106.976 119.663 106.46 120.588 106.09C121.514 105.72 122.505 105.535 123.563 105.535C124.603 105.535 125.582 105.711 126.499 106.064C127.424 106.407 128.226 106.901 128.905 107.544C129.593 108.188 130.135 108.968 130.531 109.885C130.928 110.802 131.126 111.829 131.126 112.966C131.126 113.909 130.959 114.821 130.624 115.703C130.289 116.575 129.8 117.351 129.156 118.03C128.513 118.7 127.719 119.238 126.776 119.643C125.833 120.04 124.753 120.238 123.537 120.238C122.505 120.238 121.531 120.066 120.615 119.722C119.698 119.379 118.896 118.889 118.208 118.255C117.52 117.611 116.978 116.835 116.582 115.927C116.185 115.011 115.987 113.984 115.987 112.847ZM123.867 119.299C124.537 119.299 125.154 119.167 125.718 118.903C126.283 118.638 126.767 118.259 127.173 117.765C127.587 117.272 127.905 116.672 128.125 115.967C128.354 115.253 128.469 114.451 128.469 113.561C128.469 112.547 128.359 111.608 128.138 110.744C127.927 109.88 127.6 109.136 127.16 108.51C126.728 107.875 126.186 107.381 125.533 107.029C124.881 106.667 124.119 106.487 123.246 106.487C122.576 106.487 121.959 106.614 121.395 106.87C120.831 107.126 120.341 107.496 119.927 107.981C119.521 108.466 119.204 109.061 118.975 109.766C118.746 110.471 118.631 111.273 118.631 112.172C118.631 113.177 118.741 114.116 118.962 114.989C119.191 115.853 119.521 116.606 119.953 117.25C120.394 117.884 120.941 118.387 121.593 118.757C122.245 119.119 123.003 119.299 123.867 119.299ZM143.41 107.055L147.099 116.43L150.206 108.655C150.286 108.488 150.365 108.303 150.444 108.1C150.524 107.888 150.594 107.677 150.656 107.465C150.727 107.245 150.779 107.038 150.815 106.844C150.859 106.641 150.881 106.46 150.881 106.302C150.881 106.187 150.872 106.09 150.854 106.011C150.837 105.922 150.819 105.865 150.801 105.839V105.786H153.274V105.839C153.098 106.015 152.891 106.306 152.653 106.711C152.415 107.108 152.133 107.694 151.806 108.47L146.874 120.185H146.147L142.577 111.445L138.941 120.185H138.187L133.639 109.144C133.471 108.739 133.291 108.351 133.097 107.981C132.911 107.602 132.731 107.267 132.554 106.976C132.387 106.676 132.237 106.429 132.105 106.235C131.981 106.033 131.898 105.9 131.854 105.839V105.786H135.477V105.839C135.459 105.883 135.446 105.953 135.437 106.05C135.428 106.147 135.424 106.231 135.424 106.302C135.424 106.584 135.468 106.901 135.556 107.254C135.644 107.597 135.79 108.029 135.992 108.549L139.166 116.483L142.894 107.055H143.41ZM157.452 118.969C158.272 118.969 159.026 118.938 159.713 118.876C160.41 118.806 161.018 118.731 161.538 118.651C162.146 118.554 162.697 118.444 163.191 118.321L162.887 120.079C162.763 120.071 162.552 120.057 162.252 120.04C161.961 120.031 161.653 120.022 161.327 120.013C161 120.013 160.696 120.009 160.414 120C160.132 120 159.938 120 159.832 120H154.768V119.947C154.83 119.762 154.883 119.524 154.927 119.233C154.98 118.942 155.019 118.585 155.046 118.162C155.081 117.73 155.108 117.219 155.125 116.628C155.143 116.038 155.152 115.346 155.152 114.552V111.22C155.152 110.427 155.143 109.739 155.125 109.158C155.108 108.567 155.081 108.06 155.046 107.637C155.019 107.205 154.98 106.844 154.927 106.553C154.883 106.262 154.83 106.024 154.768 105.839V105.786H157.823V105.839C157.761 106.024 157.708 106.262 157.664 106.553C157.62 106.844 157.58 107.205 157.545 107.637C157.519 108.06 157.496 108.567 157.479 109.158C157.461 109.739 157.452 110.427 157.452 111.22V118.969ZM165.478 105.786C166.342 105.786 167.228 105.786 168.136 105.786C169.044 105.777 169.886 105.768 170.662 105.759C171.437 105.742 172.103 105.724 172.658 105.706C173.222 105.689 173.593 105.662 173.769 105.627L173.253 107.055C173.015 106.993 172.746 106.936 172.447 106.883C172.182 106.839 171.86 106.8 171.481 106.764C171.111 106.72 170.679 106.698 170.186 106.698C170.009 106.698 169.807 106.707 169.577 106.725C169.348 106.733 169.128 106.747 168.916 106.764C168.669 106.782 168.418 106.8 168.163 106.817V112.04C168.877 112.031 169.52 112.014 170.093 111.987C170.666 111.961 171.155 111.925 171.561 111.881C172.037 111.846 172.456 111.798 172.817 111.736L172.5 113.309C172.015 113.248 171.526 113.195 171.032 113.151C170.609 113.107 170.142 113.071 169.63 113.045C169.119 113.01 168.63 112.992 168.163 112.992V118.995C168.982 118.995 169.736 118.964 170.424 118.903C171.111 118.832 171.711 118.757 172.222 118.678C172.821 118.581 173.363 118.471 173.848 118.347L173.544 120.079C173.412 120.071 173.196 120.057 172.896 120.04C172.605 120.031 172.297 120.022 171.971 120.013C171.653 120.013 171.354 120.009 171.072 120C170.789 120 170.596 120 170.49 120H165.478V119.947C165.54 119.762 165.593 119.524 165.637 119.233C165.69 118.942 165.73 118.585 165.756 118.162C165.791 117.73 165.818 117.219 165.835 116.628C165.853 116.038 165.862 115.346 165.862 114.552V111.22C165.862 110.427 165.853 109.739 165.835 109.158C165.818 108.567 165.791 108.06 165.756 107.637C165.73 107.205 165.69 106.844 165.637 106.553C165.593 106.262 165.54 106.024 165.478 105.839V105.786ZM179.534 106.725C179.525 107.447 179.516 108.148 179.507 108.827C179.507 109.118 179.503 109.418 179.494 109.726C179.494 110.026 179.49 110.326 179.481 110.625C179.481 110.925 179.481 111.211 179.481 111.485C179.481 111.749 179.481 111.987 179.481 112.199C179.481 112.639 179.481 113.173 179.481 113.799C179.49 114.416 179.499 115.05 179.507 115.703C179.516 116.355 179.53 116.985 179.547 117.594C179.565 118.193 179.587 118.695 179.613 119.101C179.701 119.119 179.816 119.136 179.957 119.154C180.098 119.163 180.244 119.176 180.393 119.193C180.552 119.202 180.706 119.211 180.856 119.22C181.006 119.22 181.134 119.22 181.24 119.22C181.724 119.22 182.214 119.189 182.707 119.127C183.21 119.066 183.69 118.951 184.149 118.784C184.616 118.607 185.052 118.369 185.458 118.07C185.863 117.77 186.216 117.386 186.515 116.919C186.824 116.443 187.062 115.875 187.229 115.213C187.406 114.544 187.494 113.755 187.494 112.847C187.494 110.846 187.013 109.303 186.053 108.219C185.101 107.135 183.677 106.592 181.782 106.592C181.597 106.592 181.398 106.597 181.187 106.606C180.984 106.614 180.781 106.628 180.579 106.645C180.376 106.654 180.182 106.667 179.997 106.685C179.82 106.703 179.666 106.716 179.534 106.725ZM176.797 105.759C177.008 105.768 177.207 105.773 177.392 105.773C177.551 105.781 177.705 105.786 177.855 105.786C178.005 105.786 178.115 105.786 178.185 105.786C178.309 105.786 178.529 105.781 178.846 105.773C179.164 105.764 179.521 105.755 179.917 105.746C180.323 105.729 180.746 105.715 181.187 105.706C181.636 105.689 182.051 105.68 182.43 105.68C183.461 105.68 184.444 105.799 185.378 106.037C186.313 106.275 187.132 106.667 187.838 107.214C188.552 107.752 189.116 108.461 189.53 109.343C189.944 110.215 190.152 111.295 190.152 112.582C190.152 113.966 189.914 115.139 189.438 116.099C188.962 117.06 188.318 117.845 187.507 118.453C186.696 119.052 185.753 119.489 184.677 119.762C183.611 120.026 182.483 120.159 181.293 120.159C181.01 120.159 180.658 120.15 180.235 120.132C179.812 120.115 179.38 120.097 178.939 120.079C178.498 120.062 178.079 120.044 177.683 120.026C177.295 120.009 177 120 176.797 120V119.947C176.859 119.762 176.911 119.524 176.956 119.233C177.008 118.942 177.048 118.585 177.075 118.162C177.11 117.73 177.136 117.219 177.154 116.628C177.172 116.038 177.18 115.346 177.18 114.552V111.22C177.18 110.427 177.172 109.735 177.154 109.144C177.136 108.554 177.11 108.042 177.075 107.611C177.048 107.179 177.008 106.817 176.956 106.526C176.911 106.235 176.859 105.997 176.797 105.812V105.759ZM205.952 118.4C205.952 118.515 205.939 118.612 205.913 118.691C205.895 118.77 205.847 118.836 205.767 118.889C205.141 119.33 204.41 119.683 203.572 119.947C202.744 120.203 201.77 120.331 200.65 120.331C199.39 120.331 198.239 120.15 197.199 119.788C196.168 119.427 195.282 118.925 194.541 118.281C193.801 117.629 193.224 116.849 192.809 115.941C192.404 115.033 192.201 114.028 192.201 112.926C192.201 111.983 192.386 111.066 192.756 110.176C193.135 109.285 193.678 108.496 194.383 107.809C195.088 107.121 195.943 106.57 196.948 106.156C197.962 105.742 199.103 105.535 200.373 105.535C201.034 105.535 201.66 105.574 202.25 105.654C202.841 105.724 203.409 105.839 203.956 105.997L204.948 108.377L204.815 108.47C204.286 107.862 203.647 107.381 202.898 107.029C202.149 106.667 201.289 106.487 200.32 106.487C199.526 106.487 198.795 106.614 198.125 106.87C197.464 107.126 196.886 107.5 196.393 107.994C195.908 108.479 195.529 109.078 195.255 109.792C194.982 110.506 194.846 111.317 194.846 112.225C194.846 113.248 194.973 114.195 195.229 115.068C195.485 115.941 195.868 116.699 196.379 117.342C196.891 117.977 197.521 118.475 198.27 118.836C199.028 119.198 199.91 119.379 200.915 119.379C201.779 119.379 202.449 119.268 202.925 119.048C203.409 118.828 203.652 118.576 203.652 118.294V117.594C203.652 117.135 203.647 116.738 203.639 116.403C203.63 116.069 203.616 115.782 203.599 115.544C203.581 115.297 203.555 115.086 203.52 114.909C203.493 114.733 203.458 114.57 203.414 114.42V114.367H206.23V114.42C206.186 114.552 206.146 114.711 206.111 114.896C206.076 115.081 206.045 115.302 206.019 115.557C206.001 115.813 205.983 116.113 205.966 116.456C205.957 116.8 205.952 117.197 205.952 117.646V118.4ZM208.98 105.786C209.844 105.786 210.73 105.786 211.638 105.786C212.546 105.777 213.388 105.768 214.164 105.759C214.939 105.742 215.605 105.724 216.16 105.706C216.724 105.689 217.095 105.662 217.271 105.627L216.755 107.055C216.517 106.993 216.248 106.936 215.949 106.883C215.684 106.839 215.362 106.8 214.983 106.764C214.613 106.72 214.181 106.698 213.688 106.698C213.511 106.698 213.309 106.707 213.079 106.725C212.85 106.733 212.63 106.747 212.418 106.764C212.171 106.782 211.92 106.8 211.665 106.817V112.04C212.379 112.031 213.022 112.014 213.595 111.987C214.168 111.961 214.657 111.925 215.063 111.881C215.539 111.846 215.957 111.798 216.319 111.736L216.002 113.309C215.517 113.248 215.027 113.195 214.534 113.151C214.111 113.107 213.644 113.071 213.132 113.045C212.621 113.01 212.132 112.992 211.665 112.992V118.995C212.484 118.995 213.238 118.964 213.926 118.903C214.613 118.832 215.213 118.757 215.724 118.678C216.323 118.581 216.865 118.471 217.35 118.347L217.046 120.079C216.914 120.071 216.698 120.057 216.398 120.04C216.107 120.031 215.799 120.022 215.473 120.013C215.155 120.013 214.856 120.009 214.574 120C214.291 120 214.098 120 213.992 120H208.98V119.947C209.042 119.762 209.095 119.524 209.139 119.233C209.192 118.942 209.232 118.585 209.258 118.162C209.293 117.73 209.32 117.219 209.337 116.628C209.355 116.038 209.364 115.346 209.364 114.552V111.22C209.364 110.427 209.355 109.739 209.337 109.158C209.32 108.567 209.293 108.06 209.258 107.637C209.232 107.205 209.192 106.844 209.139 106.553C209.095 106.262 209.042 106.024 208.98 105.839V105.786Z" fill="#F3D8FF"/>
</svg>
