<svg width="300" height="270" viewBox="0 0 300 270" fill="none" xmlns="http://www.w3.org/2000/svg">
<path d="M30.5774 111.962L90.2887 8.53848L209.711 8.53848L269.423 111.962L209.711 215.385L90.2887 215.385L30.5774 111.962Z" fill="#2E0044" stroke="#2E0044"/>
<path d="M109.681 112.604C110.545 112.762 111.334 112.78 112.048 112.657C112.77 112.524 113.387 112.251 113.899 111.837C114.419 111.414 114.82 110.845 115.102 110.131C115.393 109.417 115.538 108.544 115.538 107.513C115.538 106.799 115.463 106.151 115.314 105.569C115.164 104.979 114.939 104.481 114.639 104.075C114.348 103.661 113.978 103.344 113.529 103.123C113.079 102.894 112.554 102.779 111.955 102.779C111.576 102.779 111.245 102.797 110.963 102.832C110.681 102.859 110.443 102.89 110.249 102.925C110.02 102.969 109.831 103.017 109.681 103.07V112.604ZM106.891 102.039C107.067 102.057 107.252 102.074 107.446 102.092C107.614 102.109 107.799 102.123 108.002 102.132C108.213 102.132 108.429 102.132 108.649 102.132C108.993 102.132 109.456 102.092 110.038 102.013C110.628 101.924 111.378 101.88 112.286 101.88C113.132 101.88 113.912 102.004 114.626 102.251C115.349 102.497 115.975 102.859 116.504 103.335C117.032 103.811 117.442 104.393 117.733 105.08C118.033 105.759 118.183 106.535 118.183 107.407C118.183 108.58 117.949 109.593 117.482 110.448C117.015 111.304 116.389 111.995 115.604 112.524C114.82 113.053 113.916 113.415 112.894 113.609C111.871 113.794 110.8 113.803 109.681 113.635V115.83C109.681 116.579 109.69 117.236 109.707 117.8C109.734 118.356 109.76 118.836 109.787 119.241C109.822 119.647 109.861 119.986 109.906 120.26C109.958 120.533 110.011 120.762 110.064 120.947V121H106.891V120.947C106.944 120.762 106.992 120.533 107.036 120.26C107.089 119.986 107.133 119.647 107.168 119.241C107.204 118.836 107.23 118.356 107.248 117.8C107.265 117.236 107.274 116.579 107.274 115.83V107.222C107.274 106.473 107.265 105.821 107.248 105.265C107.23 104.701 107.204 104.216 107.168 103.811C107.133 103.396 107.089 103.053 107.036 102.779C106.992 102.506 106.944 102.277 106.891 102.092V102.039ZM128.192 116.531C127.954 116.531 127.655 116.531 127.293 116.531C126.941 116.531 126.553 116.531 126.13 116.531C125.706 116.531 125.27 116.531 124.821 116.531C124.371 116.531 123.943 116.535 123.538 116.544C123.132 116.544 122.762 116.548 122.427 116.557C122.092 116.557 121.832 116.557 121.647 116.557L121.158 117.589C120.946 118.012 120.766 118.382 120.616 118.699C120.466 119.008 120.342 119.281 120.246 119.519C120.149 119.757 120.078 119.964 120.034 120.141C119.99 120.308 119.968 120.467 119.968 120.617C119.968 120.714 119.972 120.788 119.981 120.841C119.99 120.885 120.003 120.921 120.021 120.947V121H117.694V120.947C117.755 120.885 117.852 120.753 117.984 120.55C118.117 120.339 118.267 120.083 118.434 119.784C118.61 119.484 118.795 119.144 118.989 118.765C119.192 118.386 119.39 117.994 119.584 117.589L124.979 106.455H125.971L131.26 117.589C131.463 118.012 131.665 118.417 131.868 118.805C132.08 119.193 132.274 119.541 132.45 119.85C132.626 120.149 132.78 120.401 132.913 120.603C133.045 120.797 133.133 120.912 133.177 120.947V121H129.792C129.81 120.929 129.819 120.868 129.819 120.815C129.819 120.753 129.819 120.687 129.819 120.617C129.819 120.423 129.775 120.189 129.686 119.916C129.607 119.642 129.506 119.365 129.382 119.083C129.268 118.792 129.144 118.514 129.012 118.25C128.889 117.985 128.787 117.765 128.708 117.589L128.192 116.531ZM122.163 115.499H122.969C123.34 115.499 123.732 115.499 124.146 115.499C124.569 115.491 124.992 115.486 125.416 115.486C125.839 115.486 126.249 115.486 126.645 115.486C127.042 115.477 127.399 115.473 127.716 115.473L124.979 109.629L122.163 115.499ZM141.23 109.549H140.965C140.912 109.399 140.824 109.21 140.701 108.981C140.586 108.752 140.427 108.527 140.225 108.306C140.031 108.086 139.788 107.901 139.497 107.751C139.207 107.592 138.858 107.513 138.453 107.513C138.144 107.513 137.867 107.566 137.62 107.672C137.382 107.769 137.179 107.905 137.012 108.082C136.844 108.258 136.716 108.469 136.628 108.716C136.54 108.954 136.496 109.214 136.496 109.496C136.496 109.955 136.633 110.391 136.906 110.805C137.188 111.22 137.536 111.634 137.95 112.048C138.365 112.454 138.814 112.864 139.299 113.278C139.784 113.692 140.234 114.124 140.648 114.574C141.062 115.023 141.406 115.499 141.679 116.002C141.961 116.504 142.102 117.042 142.102 117.615C142.102 118.038 142.023 118.475 141.864 118.924C141.714 119.374 141.468 119.779 141.124 120.141C140.78 120.502 140.339 120.797 139.802 121.026C139.264 121.264 138.612 121.383 137.845 121.383C137.422 121.383 137.016 121.348 136.628 121.278C136.249 121.207 135.897 121.119 135.57 121.013C135.253 120.916 134.967 120.81 134.711 120.696C134.464 120.572 134.257 120.458 134.089 120.352L134.327 117.853H134.605C134.693 118.162 134.821 118.47 134.989 118.779C135.165 119.087 135.376 119.369 135.623 119.625C135.879 119.872 136.174 120.074 136.509 120.233C136.853 120.383 137.245 120.458 137.686 120.458C137.995 120.458 138.285 120.409 138.559 120.312C138.832 120.207 139.066 120.061 139.259 119.876C139.462 119.691 139.621 119.466 139.735 119.202C139.85 118.928 139.907 118.624 139.907 118.289C139.907 117.893 139.828 117.527 139.669 117.192C139.511 116.848 139.299 116.522 139.035 116.213C138.77 115.896 138.471 115.592 138.136 115.301C137.809 115.01 137.47 114.715 137.117 114.415C136.765 114.115 136.421 113.811 136.086 113.503C135.76 113.186 135.465 112.846 135.2 112.485C134.936 112.123 134.724 111.74 134.565 111.334C134.407 110.92 134.327 110.466 134.327 109.972C134.327 109.452 134.438 108.985 134.658 108.571C134.878 108.157 135.169 107.808 135.531 107.526C135.892 107.235 136.306 107.015 136.774 106.865C137.241 106.706 137.726 106.627 138.228 106.627C138.598 106.627 138.942 106.654 139.259 106.706C139.586 106.759 139.877 106.825 140.132 106.905C140.397 106.975 140.626 107.05 140.82 107.13C141.014 107.2 141.172 107.257 141.296 107.302L141.23 109.549ZM151.305 109.549H151.041C150.988 109.399 150.9 109.21 150.776 108.981C150.662 108.752 150.503 108.527 150.3 108.306C150.106 108.086 149.864 107.901 149.573 107.751C149.282 107.592 148.934 107.513 148.528 107.513C148.22 107.513 147.942 107.566 147.695 107.672C147.457 107.769 147.255 107.905 147.087 108.082C146.92 108.258 146.792 108.469 146.704 108.716C146.616 108.954 146.571 109.214 146.571 109.496C146.571 109.955 146.708 110.391 146.981 110.805C147.263 111.22 147.612 111.634 148.026 112.048C148.44 112.454 148.89 112.864 149.375 113.278C149.859 113.692 150.309 114.124 150.723 114.574C151.138 115.023 151.481 115.499 151.755 116.002C152.037 116.504 152.178 117.042 152.178 117.615C152.178 118.038 152.098 118.475 151.94 118.924C151.79 119.374 151.543 119.779 151.199 120.141C150.856 120.502 150.415 120.797 149.877 121.026C149.339 121.264 148.687 121.383 147.92 121.383C147.497 121.383 147.092 121.348 146.704 121.278C146.325 121.207 145.972 121.119 145.646 121.013C145.329 120.916 145.042 120.81 144.786 120.696C144.54 120.572 144.332 120.458 144.165 120.352L144.403 117.853H144.681C144.769 118.162 144.897 118.47 145.064 118.779C145.24 119.087 145.452 119.369 145.699 119.625C145.954 119.872 146.25 120.074 146.585 120.233C146.928 120.383 147.321 120.458 147.762 120.458C148.07 120.458 148.361 120.409 148.634 120.312C148.907 120.207 149.141 120.061 149.335 119.876C149.538 119.691 149.696 119.466 149.811 119.202C149.926 118.928 149.983 118.624 149.983 118.289C149.983 117.893 149.904 117.527 149.745 117.192C149.586 116.848 149.375 116.522 149.11 116.213C148.846 115.896 148.546 115.592 148.211 115.301C147.885 115.01 147.546 114.715 147.193 114.415C146.84 114.115 146.497 113.811 146.162 113.503C145.835 113.186 145.54 112.846 145.276 112.485C145.011 112.123 144.8 111.74 144.641 111.334C144.482 110.92 144.403 110.466 144.403 109.972C144.403 109.452 144.513 108.985 144.734 108.571C144.954 108.157 145.245 107.808 145.606 107.526C145.968 107.235 146.382 107.015 146.849 106.865C147.316 106.706 147.801 106.627 148.304 106.627C148.674 106.627 149.018 106.654 149.335 106.706C149.661 106.759 149.952 106.825 150.208 106.905C150.472 106.975 150.701 107.05 150.895 107.13C151.089 107.2 151.248 107.257 151.371 107.302L151.305 109.549ZM155.431 112.22C155.431 111.427 155.422 110.739 155.404 110.158C155.386 109.567 155.36 109.06 155.325 108.637C155.298 108.205 155.259 107.844 155.206 107.553C155.162 107.262 155.109 107.024 155.047 106.839V106.786H158.115V106.839C158.053 107.024 157.996 107.262 157.943 107.553C157.899 107.844 157.859 108.205 157.824 108.637C157.797 109.06 157.775 109.567 157.758 110.158C157.74 110.739 157.731 111.427 157.731 112.22V115.552C157.731 116.346 157.74 117.038 157.758 117.628C157.775 118.219 157.797 118.73 157.824 119.162C157.859 119.585 157.899 119.942 157.943 120.233C157.996 120.524 158.053 120.762 158.115 120.947V121H155.047V120.947C155.109 120.762 155.162 120.524 155.206 120.233C155.259 119.942 155.298 119.585 155.325 119.162C155.36 118.73 155.386 118.219 155.404 117.628C155.422 117.038 155.431 116.346 155.431 115.552V112.22ZM161.037 113.847C161.037 112.806 161.231 111.841 161.619 110.951C162.015 110.061 162.553 109.289 163.232 108.637C163.911 107.976 164.713 107.46 165.638 107.09C166.564 106.72 167.556 106.535 168.613 106.535C169.654 106.535 170.632 106.711 171.549 107.064C172.474 107.407 173.276 107.901 173.955 108.544C174.643 109.188 175.185 109.968 175.582 110.885C175.978 111.802 176.177 112.829 176.177 113.966C176.177 114.909 176.009 115.821 175.674 116.703C175.339 117.575 174.85 118.351 174.206 119.03C173.563 119.7 172.77 120.238 171.826 120.643C170.883 121.04 169.803 121.238 168.587 121.238C167.556 121.238 166.582 121.066 165.665 120.722C164.748 120.379 163.946 119.889 163.258 119.255C162.571 118.611 162.029 117.835 161.632 116.927C161.235 116.011 161.037 114.984 161.037 113.847ZM168.917 120.299C169.587 120.299 170.204 120.167 170.769 119.903C171.333 119.638 171.818 119.259 172.223 118.765C172.637 118.272 172.955 117.672 173.175 116.967C173.404 116.253 173.519 115.451 173.519 114.561C173.519 113.547 173.409 112.608 173.188 111.744C172.977 110.88 172.651 110.136 172.21 109.51C171.778 108.875 171.236 108.381 170.584 108.029C169.931 107.667 169.169 107.487 168.296 107.487C167.626 107.487 167.009 107.614 166.445 107.87C165.881 108.126 165.391 108.496 164.977 108.981C164.572 109.466 164.254 110.061 164.025 110.766C163.796 111.471 163.681 112.273 163.681 113.172C163.681 114.177 163.792 115.116 164.012 115.989C164.241 116.853 164.572 117.606 165.004 118.25C165.444 118.884 165.991 119.387 166.643 119.757C167.296 120.119 168.054 120.299 168.917 120.299ZM191.581 121.185H191.065L180.553 110.845V115.552C180.553 116.346 180.558 117.038 180.566 117.628C180.575 118.219 180.589 118.73 180.606 119.162C180.633 119.585 180.663 119.942 180.699 120.233C180.743 120.524 180.796 120.762 180.857 120.947V121H178.874V120.947C178.936 120.762 178.989 120.524 179.033 120.233C179.077 119.942 179.112 119.585 179.138 119.162C179.165 118.73 179.183 118.219 179.191 117.628C179.2 117.038 179.205 116.346 179.205 115.552V112.22C179.205 111.427 179.2 110.739 179.191 110.158C179.183 109.567 179.165 109.06 179.138 108.637C179.112 108.205 179.077 107.844 179.033 107.553C178.989 107.262 178.936 107.024 178.874 106.839V106.786H179.694L190.219 117.179V112.22C190.219 111.427 190.214 110.739 190.206 110.158C190.197 109.567 190.179 109.06 190.153 108.637C190.135 108.205 190.109 107.844 190.073 107.553C190.038 107.262 189.99 107.024 189.928 106.839V106.786H191.898V106.839C191.836 107.024 191.784 107.262 191.739 107.553C191.704 107.844 191.673 108.205 191.647 108.637C191.62 109.06 191.603 109.567 191.594 110.158C191.585 110.739 191.581 111.427 191.581 112.22V121.185Z" fill="#F3D8FF"/>
</svg>
