<svg width="300" height="270" viewBox="0 0 300 270" fill="none" xmlns="http://www.w3.org/2000/svg">
<path d="M60.923 0L180.923 -1.66893e-06L240.923 103.923L180.923 207.846L60.923 207.846L0.923047 103.923L60.923 0Z" fill="#2E0044"/>
<path d="M28.6808 104.604C29.5446 104.762 30.3336 104.78 31.0476 104.657C31.7704 104.524 32.3875 104.251 32.8987 103.837C33.4188 103.414 33.8199 102.845 34.102 102.131C34.3929 101.417 34.5383 100.544 34.5383 99.5131C34.5383 98.7991 34.4634 98.1512 34.3135 97.5694C34.1637 96.9788 33.9389 96.4807 33.6392 96.0752C33.3483 95.6609 32.9781 95.3436 32.5285 95.1232C32.0789 94.894 31.5544 94.7794 30.955 94.7794C30.576 94.7794 30.2454 94.797 29.9633 94.8323C29.6813 94.8588 29.4433 94.8896 29.2493 94.9249C29.0201 94.9689 28.8306 95.0174 28.6808 95.0703V104.604ZM25.8908 94.039C26.0671 94.0566 26.2522 94.0742 26.4462 94.0918C26.6136 94.1095 26.7988 94.1227 27.0015 94.1315C27.2131 94.1315 27.429 94.1315 27.6494 94.1315C27.9932 94.1315 28.456 94.0918 29.0378 94.0125C29.6284 93.9244 30.3776 93.8803 31.2856 93.8803C32.1318 93.8803 32.912 94.0037 33.626 94.2505C34.3488 94.4973 34.9747 94.8588 35.5036 95.3348C36.0325 95.8108 36.4424 96.3926 36.7333 97.0801C37.033 97.7589 37.1828 98.5346 37.1828 99.4073C37.1828 100.58 36.9492 101.593 36.482 102.448C36.0148 103.304 35.389 103.995 34.6044 104.524C33.8199 105.053 32.9164 105.415 31.8938 105.609C30.8713 105.794 29.8003 105.803 28.6808 105.635V107.83C28.6808 108.579 28.6896 109.236 28.7072 109.8C28.7336 110.356 28.7601 110.836 28.7865 111.241C28.8218 111.647 28.8615 111.986 28.9055 112.26C28.9584 112.533 29.0113 112.762 29.0642 112.947V113H25.8908V112.947C25.9437 112.762 25.9922 112.533 26.0363 112.26C26.0892 111.986 26.1332 111.647 26.1685 111.241C26.2037 110.836 26.2302 110.356 26.2478 109.8C26.2655 109.236 26.2743 108.579 26.2743 107.83V99.2222C26.2743 98.4729 26.2655 97.8206 26.2478 97.2652C26.2302 96.7011 26.2037 96.2163 26.1685 95.8108C26.1332 95.3965 26.0892 95.0527 26.0363 94.7794C25.9922 94.5062 25.9437 94.277 25.8908 94.0918V94.039ZM42.2999 106.098C42.4762 106.124 42.6525 106.146 42.8288 106.164C43.0139 106.173 43.1902 106.177 43.3577 106.177C44.4596 106.177 45.2926 105.882 45.8568 105.291C46.4297 104.701 46.7162 103.815 46.7162 102.634C46.7162 101.664 46.487 100.897 46.0287 100.333C45.5791 99.7687 44.9136 99.4866 44.0321 99.4866C43.75 99.4866 43.4988 99.4998 43.2784 99.5263C43.0668 99.5439 42.8861 99.566 42.7363 99.5924C42.5688 99.6277 42.4233 99.6629 42.2999 99.6982V106.098ZM44.323 106.957C44.1467 106.984 43.9704 107.001 43.7941 107.01C43.6266 107.01 43.4547 107.01 43.2784 107.01C43.1373 107.01 42.9831 107.006 42.8156 106.997C42.6481 106.988 42.4762 106.975 42.2999 106.957V107.605C42.2999 108.39 42.3087 109.077 42.3264 109.668C42.344 110.25 42.366 110.752 42.3925 111.175C42.4277 111.598 42.4674 111.955 42.5115 112.246C42.5556 112.528 42.6084 112.762 42.6701 112.947V113H39.6158V112.947C39.6775 112.762 39.7303 112.524 39.7744 112.233C39.8273 111.942 39.867 111.585 39.8934 111.162C39.9287 110.73 39.9551 110.219 39.9728 109.628C39.9904 109.038 39.9992 108.346 39.9992 107.552V104.22C39.9992 103.427 39.9904 102.739 39.9728 102.158C39.9551 101.567 39.9287 101.06 39.8934 100.637C39.867 100.205 39.8273 99.8436 39.7744 99.5527C39.7303 99.2618 39.6775 99.0238 39.6158 98.8387V98.7858C39.7568 98.7946 39.9066 98.8035 40.0653 98.8123C40.1975 98.8211 40.343 98.8299 40.5017 98.8387C40.6691 98.8387 40.8366 98.8387 41.0041 98.8387C41.2862 98.8387 41.7049 98.8123 42.2602 98.7594C42.8156 98.7065 43.4679 98.6801 44.2172 98.6801C44.9753 98.6801 45.6628 98.7726 46.2799 98.9577C46.9057 99.1428 47.4391 99.4073 47.8798 99.7511C48.3294 100.095 48.6732 100.514 48.9112 101.007C49.158 101.501 49.2814 102.052 49.2814 102.66C49.2814 103.136 49.2153 103.572 49.0831 103.969C48.9508 104.357 48.7657 104.71 48.5277 105.027C48.2897 105.335 48.0076 105.609 47.6815 105.847C47.3553 106.085 46.9939 106.292 46.5972 106.468L49.3607 110.369C49.5987 110.686 49.8367 110.99 50.0747 111.281C50.3216 111.572 50.5552 111.832 50.7755 112.061C50.9959 112.29 51.2031 112.484 51.397 112.643C51.5909 112.793 51.754 112.894 51.8862 112.947V113H48.4219C48.4219 112.921 48.3646 112.784 48.25 112.59C48.1443 112.387 48.0164 112.18 47.8666 111.969C47.7255 111.748 47.5801 111.537 47.4302 111.334C47.2892 111.131 47.1834 110.981 47.1129 110.884L44.323 106.957ZM52.2432 105.847C52.2432 104.806 52.4372 103.841 52.825 102.951C53.2217 102.061 53.7594 101.289 54.4382 100.637C55.1169 99.9759 55.9191 99.4602 56.8446 99.0899C57.7702 98.7197 58.7619 98.5346 59.8197 98.5346C60.8599 98.5346 61.8383 98.7109 62.7551 99.0635C63.6807 99.4073 64.4828 99.9009 65.1616 100.544C65.8492 101.188 66.3913 101.968 66.788 102.885C67.1846 103.802 67.383 104.829 67.383 105.966C67.383 106.909 67.2155 107.821 66.8805 108.703C66.5455 109.575 66.0563 110.351 65.4128 111.03C64.7693 111.7 63.976 112.238 63.0328 112.643C62.0896 113.04 61.0097 113.238 59.7933 113.238C58.7619 113.238 57.7879 113.066 56.8711 112.722C55.9543 112.379 55.1522 111.889 54.4646 111.255C53.777 110.611 53.2349 109.835 52.8382 108.927C52.4416 108.011 52.2432 106.984 52.2432 105.847ZM60.1238 112.299C60.7938 112.299 61.4108 112.167 61.975 111.903C62.5391 111.638 63.024 111.259 63.4294 110.765C63.8437 110.272 64.1611 109.672 64.3815 108.967C64.6107 108.253 64.7252 107.451 64.7252 106.561C64.7252 105.547 64.6151 104.608 64.3947 103.744C64.1831 102.88 63.857 102.136 63.4162 101.51C62.9843 100.875 62.4422 100.381 61.7899 100.029C61.1375 99.6673 60.375 99.4866 59.5024 99.4866C58.8324 99.4866 58.2154 99.6144 57.6512 99.8701C57.0871 100.126 56.5978 100.496 56.1835 100.981C55.778 101.466 55.4607 102.061 55.2315 102.766C55.0023 103.471 54.8877 104.273 54.8877 105.172C54.8877 106.177 54.9979 107.116 55.2183 107.989C55.4475 108.853 55.778 109.606 56.21 110.25C56.6507 110.884 57.1972 111.387 57.8496 111.757C58.5019 112.119 59.26 112.299 60.1238 112.299ZM72.7645 107.552C72.7645 108.346 72.7733 109.038 72.791 109.628C72.8086 110.219 72.8306 110.73 72.8571 111.162C72.8923 111.585 72.932 111.942 72.9761 112.233C73.0202 112.524 73.073 112.762 73.1347 112.947V113H70.0804V112.947C70.1421 112.762 70.1949 112.524 70.239 112.233C70.2919 111.942 70.3316 111.585 70.358 111.162C70.3933 110.73 70.4197 110.219 70.4374 109.628C70.455 109.038 70.4638 108.346 70.4638 107.552V104.22C70.4638 103.427 70.455 102.739 70.4374 102.158C70.4197 101.567 70.3933 101.06 70.358 100.637C70.3316 100.205 70.2919 99.8436 70.239 99.5527C70.1949 99.2618 70.1421 99.0238 70.0804 98.8387V98.7858C70.6533 98.7858 71.2439 98.7858 71.8522 98.7858C72.4692 98.7858 73.073 98.7858 73.6636 98.7858C74.2631 98.777 74.8316 98.7682 75.3693 98.7594C75.9159 98.7506 76.4051 98.7418 76.837 98.7329C77.2778 98.7153 77.6524 98.7021 77.961 98.6933C78.2695 98.6756 78.4854 98.6536 78.6089 98.6272L78.0667 100.055C77.8375 99.9935 77.5731 99.9362 77.2734 99.8833C77.0178 99.8392 76.696 99.7996 76.3081 99.7643C75.9291 99.7202 75.4972 99.6982 75.0123 99.6982C74.836 99.6982 74.6201 99.707 74.3644 99.7246C74.1176 99.7334 73.8752 99.7467 73.6372 99.7643C73.3551 99.7819 73.0642 99.7996 72.7645 99.8172V104.63C73.4785 104.621 74.1308 104.604 74.7214 104.577C75.3121 104.542 75.8233 104.507 76.2553 104.471C76.7577 104.436 77.2073 104.392 77.6039 104.339L77.3131 105.926C76.793 105.864 76.2685 105.807 75.7396 105.754C75.29 105.71 74.7964 105.67 74.2587 105.635C73.7298 105.6 73.2317 105.582 72.7645 105.582V107.552ZM80.7641 98.7858C81.628 98.7858 82.5139 98.7858 83.4218 98.7858C84.3298 98.777 85.1716 98.7682 85.9473 98.7594C86.7231 98.7418 87.3886 98.7241 87.9439 98.7065C88.5081 98.6889 88.8783 98.6624 89.0546 98.6272L88.5389 100.055C88.3009 99.9935 88.0321 99.9362 87.7324 99.8833C87.4679 99.8392 87.1462 99.7996 86.7671 99.7643C86.3969 99.7202 85.965 99.6982 85.4713 99.6982C85.295 99.6982 85.0923 99.707 84.8631 99.7246C84.6339 99.7334 84.4135 99.7467 84.202 99.7643C83.9551 99.7819 83.7039 99.7996 83.4483 99.8172V105.04C84.1623 105.031 84.8058 105.014 85.3788 104.987C85.9517 104.961 86.441 104.925 86.8465 104.881C87.3225 104.846 87.7412 104.798 88.1026 104.736L87.7853 106.309C87.3004 106.248 86.8112 106.195 86.3176 106.151C85.8944 106.107 85.4272 106.071 84.916 106.045C84.4047 106.01 83.9155 105.992 83.4483 105.992V111.995C84.2681 111.995 85.0218 111.964 85.7093 111.903C86.3969 111.832 86.9963 111.757 87.5076 111.678C88.107 111.581 88.6491 111.471 89.134 111.347L88.8298 113.079C88.6976 113.071 88.4816 113.057 88.1819 113.04C87.891 113.031 87.5825 113.022 87.2564 113.013C86.939 113.013 86.6393 113.009 86.3572 113C86.0752 113 85.8812 113 85.7754 113H80.7641V112.947C80.8258 112.762 80.8787 112.524 80.9228 112.233C80.9757 111.942 81.0153 111.585 81.0418 111.162C81.0771 110.73 81.1035 110.219 81.1211 109.628C81.1388 109.038 81.1476 108.346 81.1476 107.552V104.22C81.1476 103.427 81.1388 102.739 81.1211 102.158C81.1035 101.567 81.0771 101.06 81.0418 100.637C81.0153 100.205 80.9757 99.8436 80.9228 99.5527C80.8787 99.2618 80.8258 99.0238 80.7641 98.8387V98.7858ZM98.5219 101.549H98.2575C98.2046 101.399 98.1164 101.21 97.993 100.981C97.8784 100.752 97.7197 100.527 97.517 100.306C97.3231 100.086 97.0807 99.9009 96.7898 99.7511C96.4989 99.5924 96.1507 99.5131 95.7452 99.5131C95.4367 99.5131 95.159 99.566 94.9122 99.6717C94.6742 99.7687 94.4714 99.9053 94.3039 100.082C94.1365 100.258 94.0086 100.469 93.9205 100.716C93.8323 100.954 93.7883 101.214 93.7883 101.496C93.7883 101.955 93.9249 102.391 94.1982 102.805C94.4802 103.22 94.8284 103.634 95.2427 104.048C95.657 104.454 96.1066 104.864 96.5914 105.278C97.0763 105.692 97.5258 106.124 97.9401 106.574C98.3544 107.023 98.6982 107.499 98.9715 108.002C99.2536 108.504 99.3946 109.042 99.3946 109.615C99.3946 110.038 99.3153 110.475 99.1566 110.924C99.0067 111.374 98.7599 111.779 98.4161 112.141C98.0723 112.502 97.6316 112.797 97.0939 113.026C96.5562 113.264 95.9039 113.383 95.137 113.383C94.7138 113.383 94.3083 113.348 93.9205 113.278C93.5414 113.207 93.1888 113.119 92.8627 113.013C92.5454 112.916 92.2589 112.81 92.0032 112.696C91.7564 112.572 91.5493 112.458 91.3818 112.352L91.6198 109.853H91.8974C91.9856 110.162 92.1134 110.47 92.2809 110.779C92.4572 111.087 92.6688 111.369 92.9156 111.625C93.1712 111.872 93.4665 112.074 93.8015 112.233C94.1453 112.383 94.5375 112.458 94.9783 112.458C95.2868 112.458 95.5777 112.409 95.851 112.312C96.1242 112.207 96.3578 112.061 96.5518 111.876C96.7545 111.691 96.9132 111.466 97.0278 111.202C97.1424 110.928 97.1997 110.624 97.1997 110.289C97.1997 109.893 97.1203 109.527 96.9617 109.192C96.803 108.848 96.5914 108.522 96.327 108.213C96.0625 107.896 95.7628 107.592 95.4279 107.301C95.1017 107.01 94.7623 106.715 94.4097 106.415C94.0571 106.115 93.7133 105.811 93.3784 105.503C93.0522 105.186 92.7569 104.846 92.4925 104.485C92.228 104.123 92.0165 103.74 91.8578 103.334C91.6991 102.92 91.6198 102.466 91.6198 101.972C91.6198 101.452 91.73 100.985 91.9503 100.571C92.1707 100.157 92.4616 99.8084 92.823 99.5263C93.1844 99.2354 93.5987 99.015 94.0659 98.8652C94.5331 98.7065 95.018 98.6272 95.5204 98.6272C95.8906 98.6272 96.2344 98.6536 96.5518 98.7065C96.8779 98.7594 97.1688 98.8255 97.4244 98.9048C97.6889 98.9754 97.9181 99.0503 98.112 99.1296C98.3059 99.2001 98.4646 99.2574 98.588 99.3015L98.5219 101.549ZM108.597 101.549H108.333C108.28 101.399 108.192 101.21 108.069 100.981C107.954 100.752 107.795 100.527 107.593 100.306C107.399 100.086 107.156 99.9009 106.865 99.7511C106.574 99.5924 106.226 99.5131 105.821 99.5131C105.512 99.5131 105.235 99.566 104.988 99.6717C104.75 99.7687 104.547 99.9053 104.379 100.082C104.212 100.258 104.084 100.469 103.996 100.716C103.908 100.954 103.864 101.214 103.864 101.496C103.864 101.955 104 102.391 104.274 102.805C104.556 103.22 104.904 103.634 105.318 104.048C105.733 104.454 106.182 104.864 106.667 105.278C107.152 105.692 107.601 106.124 108.016 106.574C108.43 107.023 108.774 107.499 109.047 108.002C109.329 108.504 109.47 109.042 109.47 109.615C109.47 110.038 109.391 110.475 109.232 110.924C109.082 111.374 108.835 111.779 108.492 112.141C108.148 112.502 107.707 112.797 107.169 113.026C106.632 113.264 105.979 113.383 105.212 113.383C104.789 113.383 104.384 113.348 103.996 113.278C103.617 113.207 103.264 113.119 102.938 113.013C102.621 112.916 102.334 112.81 102.079 112.696C101.832 112.572 101.625 112.458 101.457 112.352L101.695 109.853H101.973C102.061 110.162 102.189 110.47 102.356 110.779C102.533 111.087 102.744 111.369 102.991 111.625C103.247 111.872 103.542 112.074 103.877 112.233C104.221 112.383 104.613 112.458 105.054 112.458C105.362 112.458 105.653 112.409 105.927 112.312C106.2 112.207 106.433 112.061 106.627 111.876C106.83 111.691 106.989 111.466 107.103 111.202C107.218 110.928 107.275 110.624 107.275 110.289C107.275 109.893 107.196 109.527 107.037 109.192C106.879 108.848 106.667 108.522 106.403 108.213C106.138 107.896 105.838 107.592 105.503 107.301C105.177 107.01 104.838 106.715 104.485 106.415C104.133 106.115 103.789 105.811 103.454 105.503C103.128 105.186 102.832 104.846 102.568 104.485C102.304 104.123 102.092 103.74 101.933 103.334C101.775 102.92 101.695 102.466 101.695 101.972C101.695 101.452 101.805 100.985 102.026 100.571C102.246 100.157 102.537 99.8084 102.899 99.5263C103.26 99.2354 103.674 99.015 104.141 98.8652C104.609 98.7065 105.093 98.6272 105.596 98.6272C105.966 98.6272 106.31 98.6536 106.627 98.7065C106.953 98.7594 107.244 98.8255 107.5 98.9048C107.764 98.9754 107.994 99.0503 108.188 99.1296C108.381 99.2001 108.54 99.2574 108.664 99.3015L108.597 101.549ZM112.723 104.22C112.723 103.427 112.714 102.739 112.696 102.158C112.679 101.567 112.652 101.06 112.617 100.637C112.591 100.205 112.551 99.8436 112.498 99.5527C112.454 99.2618 112.401 99.0238 112.339 98.8387V98.7858H115.407V98.8387C115.345 99.0238 115.288 99.2618 115.235 99.5527C115.191 99.8436 115.151 100.205 115.116 100.637C115.09 101.06 115.068 101.567 115.05 102.158C115.032 102.739 115.024 103.427 115.024 104.22V107.552C115.024 108.346 115.032 109.038 115.05 109.628C115.068 110.219 115.09 110.73 115.116 111.162C115.151 111.585 115.191 111.942 115.235 112.233C115.288 112.524 115.345 112.762 115.407 112.947V113H112.339V112.947C112.401 112.762 112.454 112.524 112.498 112.233C112.551 111.942 112.591 111.585 112.617 111.162C112.652 110.73 112.679 110.219 112.696 109.628C112.714 109.038 112.723 108.346 112.723 107.552V104.22ZM118.329 105.847C118.329 104.806 118.523 103.841 118.911 102.951C119.308 102.061 119.845 101.289 120.524 100.637C121.203 99.9759 122.005 99.4602 122.931 99.0899C123.856 98.7197 124.848 98.5346 125.906 98.5346C126.946 98.5346 127.924 98.7109 128.841 99.0635C129.767 99.4073 130.569 99.9009 131.248 100.544C131.935 101.188 132.477 101.968 132.874 102.885C133.271 103.802 133.469 104.829 133.469 105.966C133.469 106.909 133.301 107.821 132.966 108.703C132.632 109.575 132.142 110.351 131.499 111.03C130.855 111.7 130.062 112.238 129.119 112.643C128.176 113.04 127.096 113.238 125.879 113.238C124.848 113.238 123.874 113.066 122.957 112.722C122.04 112.379 121.238 111.889 120.551 111.255C119.863 110.611 119.321 109.835 118.924 108.927C118.528 108.011 118.329 106.984 118.329 105.847ZM126.21 112.299C126.88 112.299 127.497 112.167 128.061 111.903C128.625 111.638 129.11 111.259 129.515 110.765C129.93 110.272 130.247 109.672 130.467 108.967C130.697 108.253 130.811 107.451 130.811 106.561C130.811 105.547 130.701 104.608 130.481 103.744C130.269 102.88 129.943 102.136 129.502 101.51C129.07 100.875 128.528 100.381 127.876 100.029C127.224 99.6673 126.461 99.4866 125.588 99.4866C124.918 99.4866 124.301 99.6144 123.737 99.8701C123.173 100.126 122.684 100.496 122.269 100.981C121.864 101.466 121.547 102.061 121.317 102.766C121.088 103.471 120.974 104.273 120.974 105.172C120.974 106.177 121.084 107.116 121.304 107.989C121.533 108.853 121.864 109.606 122.296 110.25C122.737 110.884 123.283 111.387 123.936 111.757C124.588 112.119 125.346 112.299 126.21 112.299ZM148.873 113.185H148.357L137.846 102.845V107.552C137.846 108.346 137.85 109.038 137.859 109.628C137.868 110.219 137.881 110.73 137.898 111.162C137.925 111.585 137.956 111.942 137.991 112.233C138.035 112.524 138.088 112.762 138.15 112.947V113H136.166V112.947C136.228 112.762 136.281 112.524 136.325 112.233C136.369 111.942 136.404 111.585 136.431 111.162C136.457 110.73 136.475 110.219 136.484 109.628C136.492 109.038 136.497 108.346 136.497 107.552V104.22C136.497 103.427 136.492 102.739 136.484 102.158C136.475 101.567 136.457 101.06 136.431 100.637C136.404 100.205 136.369 99.8436 136.325 99.5527C136.281 99.2618 136.228 99.0238 136.166 98.8387V98.7858H136.986L147.511 109.179V104.22C147.511 103.427 147.507 102.739 147.498 102.158C147.489 101.567 147.472 101.06 147.445 100.637C147.427 100.205 147.401 99.8436 147.366 99.5527C147.331 99.2618 147.282 99.0238 147.22 98.8387V98.7858H149.19V98.8387C149.129 99.0238 149.076 99.2618 149.032 99.5527C148.997 99.8436 148.966 100.205 148.939 100.637C148.913 101.06 148.895 101.567 148.886 102.158C148.878 102.739 148.873 103.427 148.873 104.22V113.185ZM161.302 108.531C161.064 108.531 160.765 108.531 160.403 108.531C160.051 108.531 159.663 108.531 159.24 108.531C158.816 108.531 158.38 108.531 157.931 108.531C157.481 108.531 157.053 108.535 156.648 108.544C156.242 108.544 155.872 108.548 155.537 108.557C155.202 108.557 154.942 108.557 154.757 108.557L154.268 109.589C154.056 110.012 153.876 110.382 153.726 110.699C153.576 111.008 153.453 111.281 153.356 111.519C153.259 111.757 153.188 111.964 153.144 112.141C153.1 112.308 153.078 112.467 153.078 112.617C153.078 112.714 153.082 112.788 153.091 112.841C153.1 112.885 153.113 112.921 153.131 112.947V113H150.804V112.947C150.865 112.885 150.962 112.753 151.095 112.55C151.227 112.339 151.377 112.083 151.544 111.784C151.72 111.484 151.905 111.144 152.099 110.765C152.302 110.386 152.5 109.994 152.694 109.589L158.089 98.4553H159.081L164.37 109.589C164.573 110.012 164.775 110.417 164.978 110.805C165.19 111.193 165.384 111.541 165.56 111.85C165.736 112.149 165.89 112.401 166.023 112.603C166.155 112.797 166.243 112.912 166.287 112.947V113H162.902C162.92 112.929 162.929 112.868 162.929 112.815C162.929 112.753 162.929 112.687 162.929 112.617C162.929 112.423 162.885 112.189 162.796 111.916C162.717 111.642 162.616 111.365 162.492 111.083C162.378 110.792 162.254 110.514 162.122 110.25C161.999 109.985 161.897 109.765 161.818 109.589L161.302 108.531ZM155.273 107.499H156.079C156.45 107.499 156.842 107.499 157.256 107.499C157.679 107.491 158.102 107.486 158.526 107.486C158.949 107.486 159.359 107.486 159.755 107.486C160.152 107.477 160.509 107.473 160.826 107.473L158.089 101.629L155.273 107.499ZM170.584 111.969C171.404 111.969 172.158 111.938 172.845 111.876C173.542 111.806 174.15 111.731 174.67 111.651C175.278 111.554 175.829 111.444 176.323 111.321L176.019 113.079C175.895 113.071 175.684 113.057 175.384 113.04C175.093 113.031 174.785 113.022 174.459 113.013C174.132 113.013 173.828 113.009 173.546 113C173.264 113 173.07 113 172.964 113H167.9V112.947C167.962 112.762 168.015 112.524 168.059 112.233C168.112 111.942 168.152 111.585 168.178 111.162C168.213 110.73 168.24 110.219 168.257 109.628C168.275 109.038 168.284 108.346 168.284 107.552V104.22C168.284 103.427 168.275 102.739 168.257 102.158C168.24 101.567 168.213 101.06 168.178 100.637C168.152 100.205 168.112 99.8436 168.059 99.5527C168.015 99.2618 167.962 99.0238 167.9 98.8387V98.7858H170.955V98.8387C170.893 99.0238 170.84 99.2618 170.796 99.5527C170.752 99.8436 170.712 100.205 170.677 100.637C170.651 101.06 170.629 101.567 170.611 102.158C170.593 102.739 170.584 103.427 170.584 104.22V111.969ZM179.1 104.22C179.1 103.427 179.091 102.739 179.073 102.158C179.056 101.567 179.029 101.06 178.994 100.637C178.968 100.205 178.928 99.8436 178.875 99.5527C178.831 99.2618 178.778 99.0238 178.716 98.8387V98.7858H181.784V98.8387C181.722 99.0238 181.665 99.2618 181.612 99.5527C181.568 99.8436 181.528 100.205 181.493 100.637C181.467 101.06 181.445 101.567 181.427 102.158C181.409 102.739 181.4 103.427 181.4 104.22V107.552C181.4 108.346 181.409 109.038 181.427 109.628C181.445 110.219 181.467 110.73 181.493 111.162C181.528 111.585 181.568 111.942 181.612 112.233C181.665 112.524 181.722 112.762 181.784 112.947V113H178.716V112.947C178.778 112.762 178.831 112.524 178.875 112.233C178.928 111.942 178.968 111.585 178.994 111.162C179.029 110.73 179.056 110.219 179.073 109.628C179.091 109.038 179.1 108.346 179.1 107.552V104.22ZM191.899 101.549H191.635C191.582 101.399 191.494 101.21 191.37 100.981C191.256 100.752 191.097 100.527 190.894 100.306C190.7 100.086 190.458 99.9009 190.167 99.7511C189.876 99.5924 189.528 99.5131 189.122 99.5131C188.814 99.5131 188.536 99.566 188.289 99.6717C188.051 99.7687 187.849 99.9053 187.681 100.082C187.514 100.258 187.386 100.469 187.298 100.716C187.21 100.954 187.165 101.214 187.165 101.496C187.165 101.955 187.302 102.391 187.575 102.805C187.857 103.22 188.206 103.634 188.62 104.048C189.034 104.454 189.484 104.864 189.969 105.278C190.453 105.692 190.903 106.124 191.317 106.574C191.732 107.023 192.075 107.499 192.349 108.002C192.631 108.504 192.772 109.042 192.772 109.615C192.772 110.038 192.692 110.475 192.534 110.924C192.384 111.374 192.137 111.779 191.793 112.141C191.45 112.502 191.009 112.797 190.471 113.026C189.933 113.264 189.281 113.383 188.514 113.383C188.091 113.383 187.686 113.348 187.298 113.278C186.919 113.207 186.566 113.119 186.24 113.013C185.923 112.916 185.636 112.81 185.38 112.696C185.134 112.572 184.926 112.458 184.759 112.352L184.997 109.853H185.275C185.363 110.162 185.491 110.47 185.658 110.779C185.834 111.087 186.046 111.369 186.293 111.625C186.548 111.872 186.844 112.074 187.179 112.233C187.522 112.383 187.915 112.458 188.355 112.458C188.664 112.458 188.955 112.409 189.228 112.312C189.501 112.207 189.735 112.061 189.929 111.876C190.132 111.691 190.29 111.466 190.405 111.202C190.52 110.928 190.577 110.624 190.577 110.289C190.577 109.893 190.498 109.527 190.339 109.192C190.18 108.848 189.969 108.522 189.704 108.213C189.44 107.896 189.14 107.592 188.805 107.301C188.479 107.01 188.14 106.715 187.787 106.415C187.434 106.115 187.091 105.811 186.756 105.503C186.429 105.186 186.134 104.846 185.87 104.485C185.605 104.123 185.394 103.74 185.235 103.334C185.076 102.92 184.997 102.466 184.997 101.972C184.997 101.452 185.107 100.985 185.328 100.571C185.548 100.157 185.839 99.8084 186.2 99.5263C186.562 99.2354 186.976 99.015 187.443 98.8652C187.91 98.7065 188.395 98.6272 188.898 98.6272C189.268 98.6272 189.612 98.6536 189.929 98.7065C190.255 98.7594 190.546 98.8255 190.802 98.9048C191.066 98.9754 191.295 99.0503 191.489 99.1296C191.683 99.2001 191.842 99.2574 191.965 99.3015L191.899 101.549ZM194.61 112.947C194.724 112.824 194.839 112.599 194.953 112.273C195.077 111.947 195.174 111.594 195.244 111.215C195.35 110.598 195.465 109.897 195.588 109.113C195.72 108.319 195.848 107.504 195.972 106.666C196.104 105.829 196.232 104.996 196.355 104.167C196.478 103.33 196.593 102.554 196.699 101.84C196.805 101.126 196.893 100.5 196.963 99.9626C197.034 99.4249 197.082 99.0327 197.109 98.7858H198.682L204.989 110.078L211.455 98.7858H212.738L214.324 109.827C214.404 110.329 214.479 110.757 214.549 111.109C214.629 111.462 214.703 111.761 214.774 112.008C214.845 112.246 214.915 112.44 214.986 112.59C215.056 112.74 215.118 112.859 215.171 112.947V113H211.918V112.947C211.944 112.877 211.975 112.758 212.01 112.59C212.055 112.423 212.077 112.224 212.077 111.995C212.077 111.845 212.063 111.629 212.037 111.347C212.019 111.065 211.988 110.787 211.944 110.514L210.807 102.409L204.791 112.974L203.852 112.841L197.942 102.329C197.721 103.81 197.527 105.181 197.36 106.442C197.289 106.979 197.219 107.517 197.148 108.055C197.078 108.593 197.016 109.099 196.963 109.575C196.91 110.043 196.866 110.457 196.831 110.818C196.796 111.18 196.778 111.449 196.778 111.625C196.778 111.845 196.783 112.039 196.791 112.207C196.8 112.365 196.813 112.506 196.831 112.63C196.849 112.771 196.866 112.894 196.884 113H194.61V112.947Z" fill="#F3D8FF"/>
</svg>
