<svg width="300" height="270" viewBox="0 0 300 270" fill="none" xmlns="http://www.w3.org/2000/svg">
<path d="M30.5774 111.962L90.2887 8.53848L209.711 8.53848L269.423 111.962L209.711 215.385L90.2887 215.385L30.5774 111.962Z" fill="#2E0044" stroke="#2E0044"/>
<path opacity="0.7" d="M61.6808 112.604C62.5446 112.762 63.3336 112.78 64.0476 112.657C64.7704 112.524 65.3875 112.251 65.8987 111.837C66.4188 111.414 66.8199 110.845 67.102 110.131C67.3929 109.417 67.5383 108.544 67.5383 107.513C67.5383 106.799 67.4634 106.151 67.3135 105.569C67.1637 104.979 66.9389 104.481 66.6392 104.075C66.3483 103.661 65.9781 103.344 65.5285 103.123C65.0789 102.894 64.5544 102.779 63.955 102.779C63.576 102.779 63.2454 102.797 62.9633 102.832C62.6813 102.859 62.4433 102.89 62.2493 102.925C62.0201 102.969 61.8306 103.017 61.6808 103.07V112.604ZM58.8908 102.039C59.0671 102.057 59.2522 102.074 59.4462 102.092C59.6136 102.109 59.7988 102.123 60.0015 102.132C60.2131 102.132 60.429 102.132 60.6494 102.132C60.9932 102.132 61.456 102.092 62.0378 102.013C62.6284 101.924 63.3776 101.88 64.2856 101.88C65.1318 101.88 65.912 102.004 66.626 102.251C67.3488 102.497 67.9747 102.859 68.5036 103.335C69.0325 103.811 69.4424 104.393 69.7333 105.08C70.033 105.759 70.1828 106.535 70.1828 107.407C70.1828 108.58 69.9492 109.593 69.482 110.448C69.0148 111.304 68.389 111.995 67.6044 112.524C66.8199 113.053 65.9164 113.415 64.8938 113.609C63.8713 113.794 62.8003 113.803 61.6808 113.635V115.83C61.6808 116.579 61.6896 117.236 61.7072 117.8C61.7336 118.356 61.7601 118.836 61.7865 119.241C61.8218 119.647 61.8615 119.986 61.9055 120.26C61.9584 120.533 62.0113 120.762 62.0642 120.947V121H58.8908V120.947C58.9437 120.762 58.9922 120.533 59.0363 120.26C59.0892 119.986 59.1332 119.647 59.1685 119.241C59.2037 118.836 59.2302 118.356 59.2478 117.8C59.2655 117.236 59.2743 116.579 59.2743 115.83V107.222C59.2743 106.473 59.2655 105.821 59.2478 105.265C59.2302 104.701 59.2037 104.216 59.1685 103.811C59.1332 103.396 59.0892 103.053 59.0363 102.779C58.9922 102.506 58.9437 102.277 58.8908 102.092V102.039ZM75.2999 114.098C75.4762 114.124 75.6525 114.146 75.8288 114.164C76.0139 114.173 76.1902 114.177 76.3577 114.177C77.4596 114.177 78.2926 113.882 78.8568 113.291C79.4297 112.701 79.7162 111.815 79.7162 110.634C79.7162 109.664 79.487 108.897 79.0287 108.333C78.5791 107.769 77.9136 107.487 77.0321 107.487C76.75 107.487 76.4988 107.5 76.2784 107.526C76.0668 107.544 75.8861 107.566 75.7363 107.592C75.5688 107.628 75.4233 107.663 75.2999 107.698V114.098ZM77.323 114.957C77.1467 114.984 76.9704 115.001 76.7941 115.01C76.6266 115.01 76.4547 115.01 76.2784 115.01C76.1373 115.01 75.9831 115.006 75.8156 114.997C75.6481 114.988 75.4762 114.975 75.2999 114.957V115.605C75.2999 116.39 75.3087 117.077 75.3264 117.668C75.344 118.25 75.366 118.752 75.3925 119.175C75.4277 119.598 75.4674 119.955 75.5115 120.246C75.5556 120.528 75.6084 120.762 75.6701 120.947V121H72.6158V120.947C72.6775 120.762 72.7303 120.524 72.7744 120.233C72.8273 119.942 72.867 119.585 72.8934 119.162C72.9287 118.73 72.9551 118.219 72.9728 117.628C72.9904 117.038 72.9992 116.346 72.9992 115.552V112.22C72.9992 111.427 72.9904 110.739 72.9728 110.158C72.9551 109.567 72.9287 109.06 72.8934 108.637C72.867 108.205 72.8273 107.844 72.7744 107.553C72.7303 107.262 72.6775 107.024 72.6158 106.839V106.786C72.7568 106.795 72.9066 106.803 73.0653 106.812C73.1975 106.821 73.343 106.83 73.5017 106.839C73.6691 106.839 73.8366 106.839 74.0041 106.839C74.2862 106.839 74.7049 106.812 75.2602 106.759C75.8156 106.706 76.4679 106.68 77.2172 106.68C77.9753 106.68 78.6628 106.773 79.2799 106.958C79.9057 107.143 80.4391 107.407 80.8798 107.751C81.3294 108.095 81.6732 108.514 81.9112 109.007C82.158 109.501 82.2814 110.052 82.2814 110.66C82.2814 111.136 82.2153 111.572 82.0831 111.969C81.9508 112.357 81.7657 112.71 81.5277 113.027C81.2897 113.335 81.0076 113.609 80.6815 113.847C80.3553 114.085 79.9939 114.292 79.5972 114.468L82.3607 118.369C82.5987 118.686 82.8367 118.99 83.0747 119.281C83.3216 119.572 83.5552 119.832 83.7755 120.061C83.9959 120.29 84.2031 120.484 84.397 120.643C84.5909 120.793 84.754 120.894 84.8862 120.947V121H81.4219C81.4219 120.921 81.3646 120.784 81.25 120.59C81.1443 120.387 81.0164 120.18 80.8666 119.969C80.7255 119.748 80.5801 119.537 80.4302 119.334C80.2892 119.131 80.1834 118.981 80.1129 118.884L77.323 114.957ZM85.2432 113.847C85.2432 112.806 85.4372 111.841 85.825 110.951C86.2217 110.061 86.7594 109.289 87.4382 108.637C88.1169 107.976 88.9191 107.46 89.8446 107.09C90.7702 106.72 91.7619 106.535 92.8197 106.535C93.8599 106.535 94.8383 106.711 95.7551 107.064C96.6807 107.407 97.4828 107.901 98.1616 108.544C98.8492 109.188 99.3913 109.968 99.788 110.885C100.185 111.802 100.383 112.829 100.383 113.966C100.383 114.909 100.215 115.821 99.8805 116.703C99.5455 117.575 99.0563 118.351 98.4128 119.03C97.7693 119.7 96.976 120.238 96.0328 120.643C95.0896 121.04 94.0097 121.238 92.7933 121.238C91.7619 121.238 90.7879 121.066 89.8711 120.722C88.9543 120.379 88.1522 119.889 87.4646 119.255C86.777 118.611 86.2349 117.835 85.8382 116.927C85.4416 116.011 85.2432 114.984 85.2432 113.847ZM93.1238 120.299C93.7938 120.299 94.4108 120.167 94.975 119.903C95.5391 119.638 96.024 119.259 96.4294 118.765C96.8437 118.272 97.1611 117.672 97.3815 116.967C97.6107 116.253 97.7252 115.451 97.7252 114.561C97.7252 113.547 97.6151 112.608 97.3947 111.744C97.1831 110.88 96.857 110.136 96.4162 109.51C95.9843 108.875 95.4422 108.381 94.7899 108.029C94.1375 107.667 93.375 107.487 92.5024 107.487C91.8324 107.487 91.2154 107.614 90.6512 107.87C90.0871 108.126 89.5978 108.496 89.1835 108.981C88.778 109.466 88.4607 110.061 88.2315 110.766C88.0023 111.471 87.8877 112.273 87.8877 113.172C87.8877 114.177 87.9979 115.116 88.2183 115.989C88.4475 116.853 88.778 117.606 89.21 118.25C89.6507 118.884 90.1972 119.387 90.8496 119.757C91.5019 120.119 92.26 120.299 93.1238 120.299ZM105.765 115.552C105.765 116.346 105.773 117.038 105.791 117.628C105.809 118.219 105.831 118.73 105.857 119.162C105.892 119.585 105.932 119.942 105.976 120.233C106.02 120.524 106.073 120.762 106.135 120.947V121H103.08V120.947C103.142 120.762 103.195 120.524 103.239 120.233C103.292 119.942 103.332 119.585 103.358 119.162C103.393 118.73 103.42 118.219 103.437 117.628C103.455 117.038 103.464 116.346 103.464 115.552V112.22C103.464 111.427 103.455 110.739 103.437 110.158C103.42 109.567 103.393 109.06 103.358 108.637C103.332 108.205 103.292 107.844 103.239 107.553C103.195 107.262 103.142 107.024 103.08 106.839V106.786C103.653 106.786 104.244 106.786 104.852 106.786C105.469 106.786 106.073 106.786 106.664 106.786C107.263 106.777 107.832 106.768 108.369 106.759C108.916 106.751 109.405 106.742 109.837 106.733C110.278 106.715 110.652 106.702 110.961 106.693C111.269 106.676 111.485 106.654 111.609 106.627L111.067 108.055C110.838 107.993 110.573 107.936 110.273 107.883C110.018 107.839 109.696 107.8 109.308 107.764C108.929 107.72 108.497 107.698 108.012 107.698C107.836 107.698 107.62 107.707 107.364 107.725C107.118 107.733 106.875 107.747 106.637 107.764C106.355 107.782 106.064 107.8 105.765 107.817V112.63C106.479 112.621 107.131 112.604 107.721 112.577C108.312 112.542 108.823 112.507 109.255 112.471C109.758 112.436 110.207 112.392 110.604 112.339L110.313 113.926C109.793 113.864 109.268 113.807 108.74 113.754C108.29 113.71 107.796 113.67 107.259 113.635C106.73 113.6 106.232 113.582 105.765 113.582V115.552ZM113.764 106.786C114.628 106.786 115.514 106.786 116.422 106.786C117.33 106.777 118.172 106.768 118.947 106.759C119.723 106.742 120.389 106.724 120.944 106.706C121.508 106.689 121.878 106.662 122.055 106.627L121.539 108.055C121.301 107.993 121.032 107.936 120.732 107.883C120.468 107.839 120.146 107.8 119.767 107.764C119.397 107.72 118.965 107.698 118.471 107.698C118.295 107.698 118.092 107.707 117.863 107.725C117.634 107.733 117.414 107.747 117.202 107.764C116.955 107.782 116.704 107.8 116.448 107.817V113.04C117.162 113.031 117.806 113.014 118.379 112.987C118.952 112.961 119.441 112.925 119.846 112.881C120.322 112.846 120.741 112.798 121.103 112.736L120.785 114.309C120.3 114.248 119.811 114.195 119.318 114.151C118.894 114.107 118.427 114.071 117.916 114.045C117.405 114.01 116.915 113.992 116.448 113.992V119.995C117.268 119.995 118.022 119.964 118.709 119.903C119.397 119.832 119.996 119.757 120.508 119.678C121.107 119.581 121.649 119.471 122.134 119.347L121.83 121.079C121.698 121.071 121.482 121.057 121.182 121.04C120.891 121.031 120.583 121.022 120.256 121.013C119.939 121.013 119.639 121.009 119.357 121C119.075 121 118.881 121 118.775 121H113.764V120.947C113.826 120.762 113.879 120.524 113.923 120.233C113.976 119.942 114.015 119.585 114.042 119.162C114.077 118.73 114.103 118.219 114.121 117.628C114.139 117.038 114.148 116.346 114.148 115.552V112.22C114.148 111.427 114.139 110.739 114.121 110.158C114.103 109.567 114.077 109.06 114.042 108.637C114.015 108.205 113.976 107.844 113.923 107.553C113.879 107.262 113.826 107.024 113.764 106.839V106.786ZM131.522 109.549H131.257C131.205 109.399 131.116 109.21 130.993 108.981C130.878 108.752 130.72 108.527 130.517 108.306C130.323 108.086 130.081 107.901 129.79 107.751C129.499 107.592 129.151 107.513 128.745 107.513C128.437 107.513 128.159 107.566 127.912 107.672C127.674 107.769 127.471 107.905 127.304 108.082C127.136 108.258 127.009 108.469 126.92 108.716C126.832 108.954 126.788 109.214 126.788 109.496C126.788 109.955 126.925 110.391 127.198 110.805C127.48 111.22 127.828 111.634 128.243 112.048C128.657 112.454 129.107 112.864 129.591 113.278C130.076 113.692 130.526 114.124 130.94 114.574C131.354 115.023 131.698 115.499 131.971 116.002C132.254 116.504 132.395 117.042 132.395 117.615C132.395 118.038 132.315 118.475 132.157 118.924C132.007 119.374 131.76 119.779 131.416 120.141C131.072 120.502 130.632 120.797 130.094 121.026C129.556 121.264 128.904 121.383 128.137 121.383C127.714 121.383 127.308 121.348 126.92 121.278C126.541 121.207 126.189 121.119 125.863 121.013C125.545 120.916 125.259 120.81 125.003 120.696C124.756 120.572 124.549 120.458 124.382 120.352L124.62 117.853H124.897C124.986 118.162 125.113 118.47 125.281 118.779C125.457 119.087 125.669 119.369 125.916 119.625C126.171 119.872 126.467 120.074 126.801 120.233C127.145 120.383 127.538 120.458 127.978 120.458C128.287 120.458 128.578 120.409 128.851 120.312C129.124 120.207 129.358 120.061 129.552 119.876C129.755 119.691 129.913 119.466 130.028 119.202C130.142 118.928 130.2 118.624 130.2 118.289C130.2 117.893 130.12 117.527 129.962 117.192C129.803 116.848 129.591 116.522 129.327 116.213C129.063 115.896 128.763 115.592 128.428 115.301C128.102 115.01 127.762 114.715 127.41 114.415C127.057 114.115 126.713 113.811 126.378 113.503C126.052 113.186 125.757 112.846 125.492 112.485C125.228 112.123 125.016 111.74 124.858 111.334C124.699 110.92 124.62 110.466 124.62 109.972C124.62 109.452 124.73 108.985 124.95 108.571C125.171 108.157 125.462 107.808 125.823 107.526C126.184 107.235 126.599 107.015 127.066 106.865C127.533 106.706 128.018 106.627 128.52 106.627C128.891 106.627 129.234 106.654 129.552 106.706C129.878 106.759 130.169 106.825 130.424 106.905C130.689 106.975 130.918 107.05 131.112 107.13C131.306 107.2 131.465 107.257 131.588 107.302L131.522 109.549ZM141.597 109.549H141.333C141.28 109.399 141.192 109.21 141.069 108.981C140.954 108.752 140.795 108.527 140.593 108.306C140.399 108.086 140.156 107.901 139.865 107.751C139.574 107.592 139.226 107.513 138.821 107.513C138.512 107.513 138.235 107.566 137.988 107.672C137.75 107.769 137.547 107.905 137.379 108.082C137.212 108.258 137.084 108.469 136.996 108.716C136.908 108.954 136.864 109.214 136.864 109.496C136.864 109.955 137 110.391 137.274 110.805C137.556 111.22 137.904 111.634 138.318 112.048C138.733 112.454 139.182 112.864 139.667 113.278C140.152 113.692 140.601 114.124 141.016 114.574C141.43 115.023 141.774 115.499 142.047 116.002C142.329 116.504 142.47 117.042 142.47 117.615C142.47 118.038 142.391 118.475 142.232 118.924C142.082 119.374 141.835 119.779 141.492 120.141C141.148 120.502 140.707 120.797 140.169 121.026C139.632 121.264 138.979 121.383 138.212 121.383C137.789 121.383 137.384 121.348 136.996 121.278C136.617 121.207 136.264 121.119 135.938 121.013C135.621 120.916 135.334 120.81 135.079 120.696C134.832 120.572 134.625 120.458 134.457 120.352L134.695 117.853H134.973C135.061 118.162 135.189 118.47 135.356 118.779C135.533 119.087 135.744 119.369 135.991 119.625C136.247 119.872 136.542 120.074 136.877 120.233C137.221 120.383 137.613 120.458 138.054 120.458C138.362 120.458 138.653 120.409 138.927 120.312C139.2 120.207 139.433 120.061 139.627 119.876C139.83 119.691 139.989 119.466 140.103 119.202C140.218 118.928 140.275 118.624 140.275 118.289C140.275 117.893 140.196 117.527 140.037 117.192C139.879 116.848 139.667 116.522 139.403 116.213C139.138 115.896 138.838 115.592 138.503 115.301C138.177 115.01 137.838 114.715 137.485 114.415C137.133 114.115 136.789 113.811 136.454 113.503C136.128 113.186 135.832 112.846 135.568 112.485C135.304 112.123 135.092 111.74 134.933 111.334C134.775 110.92 134.695 110.466 134.695 109.972C134.695 109.452 134.805 108.985 135.026 108.571C135.246 108.157 135.537 107.808 135.899 107.526C136.26 107.235 136.674 107.015 137.141 106.865C137.609 106.706 138.093 106.627 138.596 106.627C138.966 106.627 139.31 106.654 139.627 106.706C139.953 106.759 140.244 106.825 140.5 106.905C140.764 106.975 140.994 107.05 141.188 107.13C141.381 107.2 141.54 107.257 141.664 107.302L141.597 109.549ZM145.723 112.22C145.723 111.427 145.714 110.739 145.696 110.158C145.679 109.567 145.652 109.06 145.617 108.637C145.591 108.205 145.551 107.844 145.498 107.553C145.454 107.262 145.401 107.024 145.339 106.839V106.786H148.407V106.839C148.345 107.024 148.288 107.262 148.235 107.553C148.191 107.844 148.151 108.205 148.116 108.637C148.09 109.06 148.068 109.567 148.05 110.158C148.032 110.739 148.024 111.427 148.024 112.22V115.552C148.024 116.346 148.032 117.038 148.05 117.628C148.068 118.219 148.09 118.73 148.116 119.162C148.151 119.585 148.191 119.942 148.235 120.233C148.288 120.524 148.345 120.762 148.407 120.947V121H145.339V120.947C145.401 120.762 145.454 120.524 145.498 120.233C145.551 119.942 145.591 119.585 145.617 119.162C145.652 118.73 145.679 118.219 145.696 117.628C145.714 117.038 145.723 116.346 145.723 115.552V112.22ZM151.329 113.847C151.329 112.806 151.523 111.841 151.911 110.951C152.308 110.061 152.845 109.289 153.524 108.637C154.203 107.976 155.005 107.46 155.931 107.09C156.856 106.72 157.848 106.535 158.906 106.535C159.946 106.535 160.924 106.711 161.841 107.064C162.767 107.407 163.569 107.901 164.248 108.544C164.935 109.188 165.477 109.968 165.874 110.885C166.271 111.802 166.469 112.829 166.469 113.966C166.469 114.909 166.301 115.821 165.966 116.703C165.632 117.575 165.142 118.351 164.499 119.03C163.855 119.7 163.062 120.238 162.119 120.643C161.176 121.04 160.096 121.238 158.879 121.238C157.848 121.238 156.874 121.066 155.957 120.722C155.04 120.379 154.238 119.889 153.551 119.255C152.863 118.611 152.321 117.835 151.924 116.927C151.528 116.011 151.329 114.984 151.329 113.847ZM159.21 120.299C159.88 120.299 160.497 120.167 161.061 119.903C161.625 119.638 162.11 119.259 162.515 118.765C162.93 118.272 163.247 117.672 163.467 116.967C163.697 116.253 163.811 115.451 163.811 114.561C163.811 113.547 163.701 112.608 163.481 111.744C163.269 110.88 162.943 110.136 162.502 109.51C162.07 108.875 161.528 108.381 160.876 108.029C160.224 107.667 159.461 107.487 158.588 107.487C157.918 107.487 157.301 107.614 156.737 107.87C156.173 108.126 155.684 108.496 155.269 108.981C154.864 109.466 154.547 110.061 154.317 110.766C154.088 111.471 153.974 112.273 153.974 113.172C153.974 114.177 154.084 115.116 154.304 115.989C154.533 116.853 154.864 117.606 155.296 118.25C155.737 118.884 156.283 119.387 156.936 119.757C157.588 120.119 158.346 120.299 159.21 120.299ZM181.873 121.185H181.357L170.846 110.845V115.552C170.846 116.346 170.85 117.038 170.859 117.628C170.868 118.219 170.881 118.73 170.898 119.162C170.925 119.585 170.956 119.942 170.991 120.233C171.035 120.524 171.088 120.762 171.15 120.947V121H169.166V120.947C169.228 120.762 169.281 120.524 169.325 120.233C169.369 119.942 169.404 119.585 169.431 119.162C169.457 118.73 169.475 118.219 169.484 117.628C169.492 117.038 169.497 116.346 169.497 115.552V112.22C169.497 111.427 169.492 110.739 169.484 110.158C169.475 109.567 169.457 109.06 169.431 108.637C169.404 108.205 169.369 107.844 169.325 107.553C169.281 107.262 169.228 107.024 169.166 106.839V106.786H169.986L180.511 117.179V112.22C180.511 111.427 180.507 110.739 180.498 110.158C180.489 109.567 180.472 109.06 180.445 108.637C180.427 108.205 180.401 107.844 180.366 107.553C180.331 107.262 180.282 107.024 180.22 106.839V106.786H182.19V106.839C182.129 107.024 182.076 107.262 182.032 107.553C181.997 107.844 181.966 108.205 181.939 108.637C181.913 109.06 181.895 109.567 181.886 110.158C181.878 110.739 181.873 111.427 181.873 112.22V121.185ZM194.302 116.531C194.064 116.531 193.765 116.531 193.403 116.531C193.051 116.531 192.663 116.531 192.24 116.531C191.816 116.531 191.38 116.531 190.931 116.531C190.481 116.531 190.053 116.535 189.648 116.544C189.242 116.544 188.872 116.548 188.537 116.557C188.202 116.557 187.942 116.557 187.757 116.557L187.268 117.589C187.056 118.012 186.876 118.382 186.726 118.699C186.576 119.008 186.453 119.281 186.356 119.519C186.259 119.757 186.188 119.964 186.144 120.141C186.1 120.308 186.078 120.467 186.078 120.617C186.078 120.714 186.082 120.788 186.091 120.841C186.1 120.885 186.113 120.921 186.131 120.947V121H183.804V120.947C183.865 120.885 183.962 120.753 184.095 120.55C184.227 120.339 184.377 120.083 184.544 119.784C184.72 119.484 184.905 119.144 185.099 118.765C185.302 118.386 185.5 117.994 185.694 117.589L191.089 106.455H192.081L197.37 117.589C197.573 118.012 197.775 118.417 197.978 118.805C198.19 119.193 198.384 119.541 198.56 119.85C198.736 120.149 198.89 120.401 199.023 120.603C199.155 120.797 199.243 120.912 199.287 120.947V121H195.902C195.92 120.929 195.929 120.868 195.929 120.815C195.929 120.753 195.929 120.687 195.929 120.617C195.929 120.423 195.885 120.189 195.796 119.916C195.717 119.642 195.616 119.365 195.492 119.083C195.378 118.792 195.254 118.514 195.122 118.25C194.999 117.985 194.897 117.765 194.818 117.589L194.302 116.531ZM188.273 115.499H189.079C189.45 115.499 189.842 115.499 190.256 115.499C190.679 115.491 191.102 115.486 191.526 115.486C191.949 115.486 192.359 115.486 192.755 115.486C193.152 115.477 193.509 115.473 193.826 115.473L191.089 109.629L188.273 115.499ZM203.584 119.969C204.404 119.969 205.158 119.938 205.845 119.876C206.542 119.806 207.15 119.731 207.67 119.651C208.278 119.554 208.829 119.444 209.323 119.321L209.019 121.079C208.895 121.071 208.684 121.057 208.384 121.04C208.093 121.031 207.785 121.022 207.459 121.013C207.132 121.013 206.828 121.009 206.546 121C206.264 121 206.07 121 205.964 121H200.9V120.947C200.962 120.762 201.015 120.524 201.059 120.233C201.112 119.942 201.152 119.585 201.178 119.162C201.213 118.73 201.24 118.219 201.257 117.628C201.275 117.038 201.284 116.346 201.284 115.552V112.22C201.284 111.427 201.275 110.739 201.257 110.158C201.24 109.567 201.213 109.06 201.178 108.637C201.152 108.205 201.112 107.844 201.059 107.553C201.015 107.262 200.962 107.024 200.9 106.839V106.786H203.955V106.839C203.893 107.024 203.84 107.262 203.796 107.553C203.752 107.844 203.712 108.205 203.677 108.637C203.651 109.06 203.629 109.567 203.611 110.158C203.593 110.739 203.584 111.427 203.584 112.22V119.969ZM212.1 112.22C212.1 111.427 212.091 110.739 212.073 110.158C212.056 109.567 212.029 109.06 211.994 108.637C211.968 108.205 211.928 107.844 211.875 107.553C211.831 107.262 211.778 107.024 211.716 106.839V106.786H214.784V106.839C214.722 107.024 214.665 107.262 214.612 107.553C214.568 107.844 214.528 108.205 214.493 108.637C214.467 109.06 214.445 109.567 214.427 110.158C214.409 110.739 214.4 111.427 214.4 112.22V115.552C214.4 116.346 214.409 117.038 214.427 117.628C214.445 118.219 214.467 118.73 214.493 119.162C214.528 119.585 214.568 119.942 214.612 120.233C214.665 120.524 214.722 120.762 214.784 120.947V121H211.716V120.947C211.778 120.762 211.831 120.524 211.875 120.233C211.928 119.942 211.968 119.585 211.994 119.162C212.029 118.73 212.056 118.219 212.073 117.628C212.091 117.038 212.1 116.346 212.1 115.552V112.22ZM224.899 109.549H224.635C224.582 109.399 224.494 109.21 224.37 108.981C224.256 108.752 224.097 108.527 223.894 108.306C223.7 108.086 223.458 107.901 223.167 107.751C222.876 107.592 222.528 107.513 222.122 107.513C221.814 107.513 221.536 107.566 221.289 107.672C221.051 107.769 220.849 107.905 220.681 108.082C220.514 108.258 220.386 108.469 220.298 108.716C220.21 108.954 220.165 109.214 220.165 109.496C220.165 109.955 220.302 110.391 220.575 110.805C220.857 111.22 221.206 111.634 221.62 112.048C222.034 112.454 222.484 112.864 222.969 113.278C223.453 113.692 223.903 114.124 224.317 114.574C224.732 115.023 225.075 115.499 225.349 116.002C225.631 116.504 225.772 117.042 225.772 117.615C225.772 118.038 225.692 118.475 225.534 118.924C225.384 119.374 225.137 119.779 224.793 120.141C224.45 120.502 224.009 120.797 223.471 121.026C222.933 121.264 222.281 121.383 221.514 121.383C221.091 121.383 220.686 121.348 220.298 121.278C219.919 121.207 219.566 121.119 219.24 121.013C218.923 120.916 218.636 120.81 218.38 120.696C218.134 120.572 217.926 120.458 217.759 120.352L217.997 117.853H218.275C218.363 118.162 218.491 118.47 218.658 118.779C218.834 119.087 219.046 119.369 219.293 119.625C219.548 119.872 219.844 120.074 220.179 120.233C220.522 120.383 220.915 120.458 221.355 120.458C221.664 120.458 221.955 120.409 222.228 120.312C222.501 120.207 222.735 120.061 222.929 119.876C223.132 119.691 223.29 119.466 223.405 119.202C223.52 118.928 223.577 118.624 223.577 118.289C223.577 117.893 223.498 117.527 223.339 117.192C223.18 116.848 222.969 116.522 222.704 116.213C222.44 115.896 222.14 115.592 221.805 115.301C221.479 115.01 221.14 114.715 220.787 114.415C220.434 114.115 220.091 113.811 219.756 113.503C219.429 113.186 219.134 112.846 218.87 112.485C218.605 112.123 218.394 111.74 218.235 111.334C218.076 110.92 217.997 110.466 217.997 109.972C217.997 109.452 218.107 108.985 218.328 108.571C218.548 108.157 218.839 107.808 219.2 107.526C219.562 107.235 219.976 107.015 220.443 106.865C220.91 106.706 221.395 106.627 221.898 106.627C222.268 106.627 222.612 106.654 222.929 106.706C223.255 106.759 223.546 106.825 223.802 106.905C224.066 106.975 224.295 107.05 224.489 107.13C224.683 107.2 224.842 107.257 224.965 107.302L224.899 109.549ZM227.61 120.947C227.724 120.824 227.839 120.599 227.953 120.273C228.077 119.947 228.174 119.594 228.244 119.215C228.35 118.598 228.465 117.897 228.588 117.113C228.72 116.319 228.848 115.504 228.972 114.666C229.104 113.829 229.232 112.996 229.355 112.167C229.478 111.33 229.593 110.554 229.699 109.84C229.805 109.126 229.893 108.5 229.963 107.963C230.034 107.425 230.082 107.033 230.109 106.786H231.682L237.989 118.078L244.455 106.786H245.738L247.324 117.827C247.404 118.329 247.479 118.757 247.549 119.109C247.629 119.462 247.703 119.761 247.774 120.008C247.845 120.246 247.915 120.44 247.986 120.59C248.056 120.74 248.118 120.859 248.171 120.947V121H244.918V120.947C244.944 120.877 244.975 120.758 245.01 120.59C245.055 120.423 245.077 120.224 245.077 119.995C245.077 119.845 245.063 119.629 245.037 119.347C245.019 119.065 244.988 118.787 244.944 118.514L243.807 110.409L237.791 120.974L236.852 120.841L230.942 110.329C230.721 111.81 230.527 113.181 230.36 114.442C230.289 114.979 230.219 115.517 230.148 116.055C230.078 116.593 230.016 117.099 229.963 117.575C229.91 118.043 229.866 118.457 229.831 118.818C229.796 119.18 229.778 119.449 229.778 119.625C229.778 119.845 229.783 120.039 229.791 120.207C229.8 120.365 229.813 120.506 229.831 120.63C229.849 120.771 229.866 120.894 229.884 121H227.61V120.947Z" fill="#F3D8FF"/>
</svg>
