<svg width="300" height="270" viewBox="0 0 300 270" fill="none" xmlns="http://www.w3.org/2000/svg">
<path d="M30.5774 111.962L90.2887 8.53848L209.711 8.53848L269.423 111.962L209.711 215.385L90.2887 215.385L30.5774 111.962Z" fill="#2E0044" stroke="#2E0044"/>
<path d="M118.798 105.054H118.507C118.436 104.851 118.322 104.622 118.163 104.366C118.013 104.11 117.811 103.872 117.555 103.652C117.308 103.423 117.004 103.233 116.643 103.084C116.29 102.934 115.871 102.859 115.386 102.859C114.955 102.859 114.571 102.925 114.236 103.057C113.901 103.189 113.619 103.374 113.39 103.612C113.169 103.85 113.002 104.133 112.887 104.459C112.773 104.785 112.716 105.146 112.716 105.543C112.716 106.178 112.892 106.786 113.244 107.368C113.606 107.941 114.055 108.509 114.593 109.073C115.131 109.637 115.713 110.202 116.338 110.766C116.964 111.33 117.546 111.916 118.084 112.524C118.622 113.133 119.067 113.772 119.419 114.442C119.781 115.103 119.961 115.817 119.961 116.584C119.961 117.157 119.86 117.734 119.657 118.316C119.463 118.889 119.159 119.404 118.745 119.863C118.331 120.321 117.797 120.696 117.145 120.987C116.493 121.269 115.717 121.41 114.818 121.41C114.315 121.41 113.835 121.361 113.377 121.264C112.927 121.176 112.508 121.066 112.121 120.934C111.741 120.793 111.398 120.643 111.089 120.484C110.789 120.326 110.543 120.18 110.349 120.048L110.653 117.126H110.983C111.08 117.54 111.239 117.937 111.459 118.316C111.68 118.686 111.949 119.017 112.266 119.308C112.592 119.59 112.962 119.819 113.377 119.995C113.791 120.163 114.245 120.246 114.739 120.246C115.188 120.246 115.589 120.18 115.942 120.048C116.303 119.907 116.612 119.717 116.867 119.479C117.123 119.233 117.317 118.942 117.449 118.607C117.59 118.272 117.661 117.906 117.661 117.509C117.661 116.954 117.559 116.443 117.357 115.975C117.154 115.499 116.885 115.05 116.55 114.627C116.224 114.204 115.849 113.794 115.426 113.397C115.012 113 114.584 112.604 114.144 112.207C113.703 111.802 113.271 111.387 112.848 110.964C112.433 110.541 112.059 110.091 111.724 109.615C111.398 109.131 111.133 108.615 110.93 108.068C110.728 107.513 110.626 106.905 110.626 106.244C110.626 105.547 110.759 104.921 111.023 104.366C111.296 103.802 111.653 103.322 112.094 102.925C112.544 102.528 113.05 102.224 113.615 102.013C114.179 101.801 114.761 101.695 115.36 101.695C115.801 101.695 116.206 101.73 116.576 101.801C116.947 101.871 117.277 101.955 117.568 102.052C117.868 102.149 118.128 102.246 118.348 102.343C118.569 102.44 118.749 102.519 118.89 102.581L118.798 105.054ZM123.055 106.786C123.919 106.786 124.805 106.786 125.713 106.786C126.621 106.777 127.463 106.768 128.239 106.759C129.014 106.742 129.68 106.724 130.235 106.706C130.799 106.689 131.17 106.662 131.346 106.627L130.83 108.055C130.592 107.993 130.323 107.936 130.024 107.883C129.759 107.839 129.438 107.8 129.059 107.764C128.688 107.72 128.256 107.698 127.763 107.698C127.586 107.698 127.384 107.707 127.154 107.725C126.925 107.733 126.705 107.747 126.493 107.764C126.247 107.782 125.995 107.8 125.74 107.817V113.04C126.454 113.031 127.097 113.014 127.67 112.987C128.243 112.961 128.732 112.925 129.138 112.881C129.614 112.846 130.033 112.798 130.394 112.736L130.077 114.309C129.592 114.248 129.103 114.195 128.609 114.151C128.186 114.107 127.719 114.071 127.207 114.045C126.696 114.01 126.207 113.992 125.74 113.992V119.995C126.559 119.995 127.313 119.964 128.001 119.903C128.688 119.832 129.288 119.757 129.799 119.678C130.398 119.581 130.941 119.471 131.425 119.347L131.121 121.079C130.989 121.071 130.773 121.057 130.473 121.04C130.182 121.031 129.874 121.022 129.548 121.013C129.23 121.013 128.931 121.009 128.649 121C128.367 121 128.173 121 128.067 121H123.055V120.947C123.117 120.762 123.17 120.524 123.214 120.233C123.267 119.942 123.307 119.585 123.333 119.162C123.368 118.73 123.395 118.219 123.413 117.628C123.43 117.038 123.439 116.346 123.439 115.552V112.22C123.439 111.427 123.43 110.739 123.413 110.158C123.395 109.567 123.368 109.06 123.333 108.637C123.307 108.205 123.267 107.844 123.214 107.553C123.17 107.262 123.117 107.024 123.055 106.839V106.786ZM137.058 114.098C137.234 114.124 137.411 114.146 137.587 114.164C137.772 114.173 137.948 114.177 138.116 114.177C139.218 114.177 140.051 113.882 140.615 113.291C141.188 112.701 141.474 111.815 141.474 110.634C141.474 109.664 141.245 108.897 140.787 108.333C140.337 107.769 139.672 107.487 138.79 107.487C138.508 107.487 138.257 107.5 138.037 107.526C137.825 107.544 137.644 107.566 137.494 107.592C137.327 107.628 137.182 107.663 137.058 107.698V114.098ZM139.081 114.957C138.905 114.984 138.729 115.001 138.552 115.01C138.385 115.01 138.213 115.01 138.037 115.01C137.896 115.01 137.741 115.006 137.574 114.997C137.406 114.988 137.234 114.975 137.058 114.957V115.605C137.058 116.39 137.067 117.077 137.085 117.668C137.102 118.25 137.124 118.752 137.151 119.175C137.186 119.598 137.226 119.955 137.27 120.246C137.314 120.528 137.367 120.762 137.428 120.947V121H134.374V120.947C134.436 120.762 134.489 120.524 134.533 120.233C134.586 119.942 134.625 119.585 134.652 119.162C134.687 118.73 134.713 118.219 134.731 117.628C134.749 117.038 134.757 116.346 134.757 115.552V112.22C134.757 111.427 134.749 110.739 134.731 110.158C134.713 109.567 134.687 109.06 134.652 108.637C134.625 108.205 134.586 107.844 134.533 107.553C134.489 107.262 134.436 107.024 134.374 106.839V106.786C134.515 106.795 134.665 106.803 134.824 106.812C134.956 106.821 135.101 106.83 135.26 106.839C135.427 106.839 135.595 106.839 135.762 106.839C136.044 106.839 136.463 106.812 137.018 106.759C137.574 106.706 138.226 106.68 138.975 106.68C139.733 106.68 140.421 106.773 141.038 106.958C141.664 107.143 142.197 107.407 142.638 107.751C143.088 108.095 143.431 108.514 143.669 109.007C143.916 109.501 144.04 110.052 144.04 110.66C144.04 111.136 143.973 111.572 143.841 111.969C143.709 112.357 143.524 112.71 143.286 113.027C143.048 113.335 142.766 113.609 142.44 113.847C142.114 114.085 141.752 114.292 141.355 114.468L144.119 118.369C144.357 118.686 144.595 118.99 144.833 119.281C145.08 119.572 145.313 119.832 145.534 120.061C145.754 120.29 145.961 120.484 146.155 120.643C146.349 120.793 146.512 120.894 146.644 120.947V121H143.18C143.18 120.921 143.123 120.784 143.008 120.59C142.902 120.387 142.775 120.18 142.625 119.969C142.484 119.748 142.338 119.537 142.188 119.334C142.047 119.131 141.942 118.981 141.871 118.884L139.081 114.957ZM149.091 106.786V106.839C149.073 106.883 149.06 106.953 149.051 107.05C149.042 107.147 149.038 107.231 149.038 107.302C149.038 107.584 149.077 107.901 149.157 108.254C149.245 108.597 149.404 109.029 149.633 109.549L153.15 117.509L156.693 109.655C156.773 109.488 156.852 109.311 156.932 109.126C157.011 108.932 157.086 108.734 157.156 108.531C157.227 108.328 157.284 108.126 157.328 107.923C157.372 107.711 157.394 107.504 157.394 107.302C157.394 107.187 157.385 107.09 157.368 107.011C157.35 106.922 157.333 106.865 157.315 106.839V106.786H159.814V106.839C159.647 107.015 159.431 107.328 159.166 107.778C158.902 108.218 158.628 108.782 158.346 109.47L153.071 121.185H152.224L147.358 110.144C147.182 109.739 146.993 109.351 146.79 108.981C146.596 108.602 146.411 108.267 146.235 107.976C146.067 107.676 145.917 107.429 145.785 107.235C145.653 107.033 145.56 106.9 145.507 106.839V106.786H149.091ZM161.652 112.22C161.652 111.427 161.643 110.739 161.625 110.158C161.608 109.567 161.581 109.06 161.546 108.637C161.52 108.205 161.48 107.844 161.427 107.553C161.383 107.262 161.33 107.024 161.268 106.839V106.786H164.336V106.839C164.274 107.024 164.217 107.262 164.164 107.553C164.12 107.844 164.08 108.205 164.045 108.637C164.019 109.06 163.997 109.567 163.979 110.158C163.961 110.739 163.953 111.427 163.953 112.22V115.552C163.953 116.346 163.961 117.038 163.979 117.628C163.997 118.219 164.019 118.73 164.045 119.162C164.08 119.585 164.12 119.942 164.164 120.233C164.217 120.524 164.274 120.762 164.336 120.947V121H161.268V120.947C161.33 120.762 161.383 120.524 161.427 120.233C161.48 119.942 161.52 119.585 161.546 119.162C161.581 118.73 161.608 118.219 161.625 117.628C161.643 117.038 161.652 116.346 161.652 115.552V112.22ZM179.952 118.051L178.92 120.511C178.665 120.625 178.374 120.731 178.048 120.828C177.73 120.916 177.4 120.991 177.056 121.053C176.712 121.115 176.36 121.159 175.998 121.185C175.646 121.22 175.311 121.238 174.993 121.238C173.883 121.238 172.851 121.075 171.899 120.749C170.956 120.423 170.141 119.947 169.453 119.321C168.766 118.686 168.228 117.91 167.84 116.994C167.452 116.077 167.258 115.028 167.258 113.847C167.258 112.806 167.461 111.841 167.866 110.951C168.272 110.061 168.832 109.289 169.546 108.637C170.26 107.976 171.102 107.46 172.071 107.09C173.05 106.72 174.108 106.535 175.245 106.535C175.5 106.535 175.769 106.548 176.051 106.574C176.342 106.592 176.629 106.623 176.911 106.667C177.193 106.711 177.466 106.764 177.73 106.825C177.995 106.878 178.242 106.936 178.471 106.997L179.463 109.377L179.304 109.47C179.066 109.179 178.779 108.91 178.444 108.663C178.118 108.417 177.757 108.209 177.36 108.042C176.972 107.866 176.562 107.729 176.131 107.632C175.699 107.535 175.258 107.487 174.808 107.487C174.077 107.487 173.407 107.614 172.798 107.87C172.199 108.126 171.683 108.5 171.251 108.994C170.828 109.479 170.498 110.074 170.26 110.779C170.022 111.484 169.903 112.282 169.903 113.172C169.903 114.177 170.017 115.116 170.247 115.989C170.476 116.853 170.82 117.606 171.278 118.25C171.736 118.884 172.309 119.387 172.997 119.757C173.684 120.119 174.487 120.299 175.403 120.299C175.844 120.299 176.276 120.246 176.699 120.141C177.131 120.026 177.537 119.867 177.916 119.665C178.303 119.462 178.656 119.219 178.973 118.937C179.291 118.646 179.564 118.325 179.793 117.972L179.952 118.051ZM182.107 106.786C182.971 106.786 183.857 106.786 184.765 106.786C185.673 106.777 186.515 106.768 187.29 106.759C188.066 106.742 188.732 106.724 189.287 106.706C189.851 106.689 190.221 106.662 190.398 106.627L189.882 108.055C189.644 107.993 189.375 107.936 189.075 107.883C188.811 107.839 188.489 107.8 188.11 107.764C187.74 107.72 187.308 107.698 186.814 107.698C186.638 107.698 186.435 107.707 186.206 107.725C185.977 107.733 185.757 107.747 185.545 107.764C185.298 107.782 185.047 107.8 184.791 107.817V113.04C185.505 113.031 186.149 113.014 186.722 112.987C187.295 112.961 187.784 112.925 188.189 112.881C188.665 112.846 189.084 112.798 189.446 112.736L189.128 114.309C188.643 114.248 188.154 114.195 187.661 114.151C187.237 114.107 186.77 114.071 186.259 114.045C185.748 114.01 185.258 113.992 184.791 113.992V119.995C185.611 119.995 186.365 119.964 187.052 119.903C187.74 119.832 188.339 119.757 188.851 119.678C189.45 119.581 189.992 119.471 190.477 119.347L190.173 121.079C190.041 121.071 189.825 121.057 189.525 121.04C189.234 121.031 188.926 121.022 188.599 121.013C188.282 121.013 187.982 121.009 187.7 121C187.418 121 187.224 121 187.118 121H182.107V120.947C182.169 120.762 182.222 120.524 182.266 120.233C182.319 119.942 182.358 119.585 182.385 119.162C182.42 118.73 182.446 118.219 182.464 117.628C182.482 117.038 182.491 116.346 182.491 115.552V112.22C182.491 111.427 182.482 110.739 182.464 110.158C182.446 109.567 182.42 109.06 182.385 108.637C182.358 108.205 182.319 107.844 182.266 107.553C182.222 107.262 182.169 107.024 182.107 106.839V106.786Z" fill="#F3D8FF"/>
</svg>
